<svg width="191" height="191" viewBox="0 0 191 191" fill="none" xmlns="http://www.w3.org/2000/svg">
<g clip-path="url(#clip0_2205_85)">
<path d="M82 6H83V7H82V6Z" fill="#0E0A1A" stroke="#0E0A1A"/>
<path d="M63 8H64V9H63V8Z" fill="#0E0A1A" stroke="#0E0A1A"/>
<path d="M110 9H111V10H110V9Z" fill="#0E0A1A" stroke="#0E0A1A"/>
<path d="M127 16H128V17H127V16Z" fill="#0E0A1A" stroke="#0E0A1A"/>
<path d="M37 22H38V23H37V22Z" fill="#0E0A1A" stroke="#0E0A1A"/>
<path d="M36 25H37V26H36V25Z" fill="#0E0A1A" stroke="#0E0A1A"/>
<path d="M145 33H146V35H145V33Z" fill="#0E0A1A" stroke="#0E0A1A"/>
<path d="M33 77H34V78H33V77Z" fill="#0E0A1A" stroke="#0E0A1A"/>
<path d="M17 84H18V85H17V84Z" fill="#0E0A1A" stroke="#0E0A1A"/>
<path d="M25 84H26V85H25V84Z" fill="#0E0A1A" stroke="#0E0A1A"/>
<path d="M19 87H20V88H19V87Z" fill="#0E0A1A" stroke="#0E0A1A"/>
<path d="M75 97H76V98H75V97Z" fill="#0E0A1A" stroke="#0E0A1A"/>
<path d="M98 101H99V102H98V101Z" fill="#0E0A1A" stroke="#0E0A1A"/>
<path d="M180 125H181V126H180V125Z" fill="#0E0A1A" stroke="#0E0A1A"/>
<path d="M4 129H5V130H4V129Z" fill="#0E0A1A" stroke="#0E0A1A"/>
<path d="M7 139H8V140H7V139Z" fill="#0E0A1A" stroke="#0E0A1A"/>
<path d="M126 141H127V142H126V141Z" fill="#0E0A1A" stroke="#0E0A1A"/>
<path d="M78 148H79V149H78V148Z" fill="#0E0A1A" stroke="#0E0A1A"/>
<path d="M126 149H127V150H126V149Z" fill="#0E0A1A" stroke="#0E0A1A"/>
<path d="M0 161H1V162H0V161Z" fill="#0E0A1A" stroke="#0E0A1A"/>
<path d="M183 165H184V166H183V165Z" fill="#0E0A1A" stroke="#0E0A1A"/>
<path d="M61 166H62V167H61V166Z" fill="#0E0A1A" stroke="#0E0A1A"/>
<path d="M53 168H54V169H53V168Z" fill="#0E0A1A" stroke="#0E0A1A"/>
<path d="M157 185H158V186H157V185Z" fill="#0E0A1A" stroke="#0E0A1A"/>
<path d="M51 17H51.25H138.75H139V17.25V51.75V52H139.25H155.75C156 51.9167 156.083 52 156 52.25V104.75V105H155.75H121.25H121V104.75V70.25V70H120.75H104.25H104V69.75V52.25V52H103.75H86.25H86V52.25V86.75C86.0833 87 86 87.0833 85.75 87H69.25H69V87.25V104.75V105H68.75H34.25H34V104.75V70.25V70H34.25H50.75C51 70.0833 51.0833 70 51 69.75V17.25V17Z" fill="#FEFEFE" stroke="#FEFEFE"/>
<path d="M51 0H51.25H54.75L55.25 0.5L55.75 0H138.75H139V0.25V16.75V17H139.25H155.75C156 16.9167 156.083 17 156 17.25V51.75V52H156.25H172.75C173 51.9167 173.083 52 173 52.25V104.75V105H173.25H190.75C191 104.917 191.083 105 191 105.25V173.75V174H190.75H173.25H173V174.25V190.75C173.083 191 173 191.083 172.75 191H139.25H139V190.75V174.25V174H138.75H121.25H121V173.75V157.25V157H120.75H69.25H69V157.25V173.75V174H68.75H51.25H51V174.25V190.75V191H50.75H0.25H0V190.75V162.25V162H1V161H0V160.75V122.25V122H0.25H15.75H16V121.75V70.25C15.9167 70 16 69.9167 16.25 70H33.75H34V69.75V17.25C33.9167 17 34 16.9167 34.25 17H50.75H51V16.75V0.25V0ZM82 6V7H83V6H82ZM63 8V9H64V8H63ZM110 9V10H111V9H110ZM127 16V17H122.5C122.167 16.3333 121.833 16.3333 121.5 17H51.5H51V17.5V70H34.5H34V70.5V77H33V78H34V78.5V122H16.5C16.1667 122 16 122.167 16 122.5V174H16.5H51V157.5V157H51.5H69V139.5V139H69.5H139V139.5V174H139.5H173V105.5C173 105.167 173 105 173 105H156.5H156V52.5C156 52.1667 156 52 156 52H139.5H139V22.5C139.667 22.1667 139.667 21.8333 139 21.5V17.5V17H128.5H128V16H127ZM37 22V23H38V22H37ZM36 25V26H37V25H36ZM145 33V35H146V33H145ZM17 84V85H18V84H17ZM25 84V85H26V84H25ZM19 87V88H20V87H19ZM180 125V126H181V125H180ZM4 129V130H5V129H4ZM7 139V140H8V139H7ZM126 141V142H127V141H126ZM78 148V149H79V148H78ZM126 149V150H127V149H126ZM183 165V166H184V165H183ZM61 166V167H62V166H61ZM53 168V169H54V168H53ZM157 185V186H158V185H157Z" fill="#0E0A1B"/>
<path d="M139 17V16.75V0.25V0H138.75H55.75L55.25 0.5L54.75 0H51.25H51V0.25V16.75V17M139 17H139.25H155.75C156 16.9167 156.083 17 156 17.25V51.75V52M139 17V17.5V21.5C139.667 21.8333 139.667 22.1667 139 22.5V52H139.5H156M139 17H128.5H128V16H127V17H122.5C122.167 16.3333 121.833 16.3333 121.5 17H51.5H51M156 52H156.25H172.75C173 51.9167 173.083 52 173 52.25V104.75V105M156 52C156 52 156 52.1667 156 52.5V105H156.5H173M173 105H173.25H190.75C191 104.917 191.083 105 191 105.25V173.75V174H190.75H173.25H173M173 105C173 105 173 105.167 173 105.5V174M173 174V174.25V190.75C173.083 191 173 191.083 172.75 191H139.25H139V190.75V174.25V174M173 174H139.5H139M139 174H138.75H121.25H121V173.75V157.25V157H120.75H69.25H69M139 174V139.5V139H69.5H69V139.5V157M69 157V157.25V173.75V174H68.75H51.25H51M69 157H51.5H51V157.5V174M51 174V174.25V190.75V191H50.75H0.25H0V190.75V162.25V162H1V161H0V160.75V122.25V122H0.25H15.75H16V121.75V70.25C15.9167 70 16 69.9167 16.25 70H33.75H34M51 174H16.5H16V122.5C16 122.167 16.1667 122 16.5 122H34V78.5V78H33V77H34V70.5V70M34 70V69.75V17.25C33.9167 17 34 16.9167 34.25 17H50.75H51M34 70H34.5H51V17.5V17M82 6V7H83V6H82ZM63 8V9H64V8H63ZM110 9V10H111V9H110ZM37 22V23H38V22H37ZM36 25V26H37V25H36ZM145 33V35H146V33H145ZM17 84V85H18V84H17ZM25 84V85H26V84H25ZM19 87V88H20V87H19ZM180 125V126H181V125H180ZM4 129V130H5V129H4ZM7 139V140H8V139H7ZM126 141V142H127V141H126ZM78 148V149H79V148H78ZM126 149V150H127V149H126ZM183 165V166H184V165H183ZM61 166V167H62V166H61ZM53 168V169H54V168H53ZM157 185V186H158V185H157Z" stroke="#0E0A1B"/>
<path d="M86 52H86.25H103.75C104 51.9167 104.083 52 104 52.25V54.25C103.333 54.5833 103.333 54.9167 104 55.25V69.75V70H104.25H120.75H121V70.25V104.75V105H120.75H69.25H69V104.75V87.25V87H69.25H85.75H86V86.75V52.25V52ZM75 97V98H76V97H75ZM98 101V102H99V101H98Z" fill="#0E0A1B" stroke="#0E0A1B"/>
<path d="M34 105H34.25H172.75H173V105.25V173.75V174H172.75H139.25H139V173.75V139.25V139H138.75H69.25H69V139.25V156.75V157H68.75H51.25H51V157.25V173.75V174H50.75H16.25H16V173.75V122.25C15.9167 122 16 121.917 16.25 122H33.75H34V121.75V105.25V105Z" fill="#A47AA2" stroke="#A47AA2"/>
</g>
<defs>
<clipPath id="clip0_2205_85">
<rect width="191" height="191" fill="white"/>
</clipPath>
</defs>
</svg>
