<svg width="313" height="22" viewBox="0 0 313 22" fill="none" xmlns="http://www.w3.org/2000/svg">
<g clip-path="url(#clip0_2205_308)">
<path d="M64 0H64.25H72.75C73 -0.0833333 73.0833 0 73 0.25V3.75V4H73.25H76.75H77V4.25V16.75V17H76.75H73.25H73V17.25V21.75V22H72.75H64.25H64V21.75V0.25V0ZM69 4V4.5V17C69 17 69.1667 17 69.5 17H73V4.5C73 4.16667 73 4 73 4H69.5H69Z" fill="#A47AA2"/>
<path d="M73 4V3.75V0.25C73.0833 0 73 -0.0833333 72.75 0H64.25H64V0.25V21.75V22H64.25H72.75H73V21.75V17.25V17M73 4H73.25H76.75H77V4.25V16.75V17H76.75H73.25H73M73 4C73 4 73 4.16667 73 4.5V17M73 4H69.5H69V4.5V17C69 17 69.1667 17 69.5 17H73" stroke="#A47AA2"/>
<path d="M82 0H82.25H94.75C95 -0.0833333 95.0833 0 95 0.25V3.75V4H94.75H86.25H86V4.25V8.75V9H86.25H94.75H95V9.25V12.75V13H94.75H86.25H86V13.25V16.75V17H86.25H94.75H95V17.25V21.75V22H94.75H82.25H82V21.75V0.25V0Z" fill="#A47AA2" stroke="#A47AA2"/>
<path d="M99 0H99.25H103.75H104V0.25V8.75V9H104.25H107.75H108V9.25V16.75V17H108.25H111.75H112V16.75V9.25V9H112.25H116.75H117V8.75V0.25V0H117.25H120.75H121V0.25V8.75C121.083 9 121 9.08333 120.75 9H117.25H117V9.25V16.75V17H116.75H112.25H112V17.25V21.75V22H111.75H108.25H108V21.75V17.25V17H107.75H104.25C104 17.0833 103.917 17 104 16.75V9.25V9H103.75H99.25H99V8.75V0.25V0Z" fill="#A47AA2"/>
<path d="M104 9V8.75V0.25V0H103.75H99.25H99V0.25V8.75V9H99.25H103.75H104ZM104 9H104.25H107.75H108V9.25V16.75V17M104 9V9.25V16.75C103.917 17 104 17.0833 104.25 17H107.75H108M108 17H108.25H111.75H112M108 17V17.25V21.75V22H108.25H111.75H112V21.75V17.25V17M112 17V16.75V9.25V9H112.25H116.75H117M112 17H112.25H116.75H117V16.75V9.25V9M117 9V8.75V0.25V0H117.25H120.75H121V0.25V8.75C121.083 9 121 9.08333 120.75 9H117.25H117Z" stroke="#A47AA2"/>
<path d="M138 0H138.25H151.75C152 -0.0833333 152.083 0 152 0.25V3.75V4H151.75H138.25H138V4.25V8.75V9H138.25H146.75H147V9.25V12.75V13H147.25H151.75H152V13.25V16.75V17H151.75H147.25H147V17.25V21.75C147.083 22 147 22.0833 146.75 22H134.25H134V21.75V17.25V17H134.25H146.75C147 17.0833 147.083 17 147 16.75V13.25V13H146.75H138.25H138V12.75V9.25V9H137.75H134.25H134V8.75V4.25V4H134.25H137.75H138V3.75V0.25V0Z" fill="#A47AA2"/>
<path d="M138 4H138.25H151.75H152V3.75V0.25C152.083 0 152 -0.0833333 151.75 0H138.25H138V0.25V3.75V4ZM138 4V4.25V8.75V9M138 4H137.75H134.25H134V4.25V8.75V9H134.25H137.75H138M138 9H138.25H146.75H147V9.25V12.75V13M138 9V9.25V12.75V13H138.25H146.75H147M147 13H147.25H151.75H152V13.25V16.75V17H151.75H147.25H147V17.25V21.75C147.083 22 147 22.0833 146.75 22H134.25H134V21.75V17.25V17H134.25H146.75C147 17.0833 147.083 17 147 16.75V13.25V13Z" stroke="#A47AA2"/>
<path d="M156 0H156.25H177.75C178 -0.0833333 178.083 0 178 0.25V3.75V4H177.75H169.25H169V4.25V21.75C169.083 22 169 22.0833 168.75 22H165.25H165V21.75V4.25V4H164.75H156.25H156V3.75V0.25V0Z" fill="#A47AA2" stroke="#A47AA2"/>
<path d="M182 0H182.25H185.75C186 -0.0833333 186.083 0 186 0.25V16.75V17H186.25H194.75H195V16.75V0.25C194.917 0 195 -0.0833333 195.25 0H198.75H199V0.25V16.75V17H198.75H195.25H195V17.25V21.75V22H194.75H186.25H186V21.75V17.25V17H185.75H182.25C182 17.0833 181.917 17 182 16.75V0.25V0Z" fill="#A47AA2"/>
<path d="M186 17V16.75V0.25C186.083 0 186 -0.0833333 185.75 0H182.25H182V0.25V16.75C181.917 17 182 17.0833 182.25 17H185.75H186ZM186 17H186.25H194.75H195M186 17V17.25V21.75V22H186.25H194.75H195V21.75V17.25V17M195 17V16.75V0.25C194.917 0 195 -0.0833333 195.25 0H198.75H199V0.25V16.75V17H198.75H195.25H195Z" stroke="#A47AA2"/>
<path d="M204 0H204.25H212.75C213 -0.0833333 213.083 0 213 0.25V3.75V4H213.25H216.75H217V4.25V16.75V17H216.75H213.25H213V17.25V21.75V22H212.75H204.25H204V21.75V0.25V0ZM208 4V4.5V17H208.5H213V4.5V4H208.5H208Z" fill="#A47AA2"/>
<path d="M213 4V3.75V0.25C213.083 0 213 -0.0833333 212.75 0H204.25H204V0.25V21.75V22H204.25H212.75H213V21.75V17.25V17M213 4H213.25H216.75H217V4.25V16.75V17H216.75H213.25H213M213 4V4.5V17M213 4H208.5H208V4.5V17H208.5H213" stroke="#A47AA2"/>
<path d="M221 0H221.25H225.75C226 -0.0833333 226.083 0 226 0.25V21.75V22H225.75H221.25C221 22.0833 220.917 22 221 21.75V0.25V0Z" fill="#A47AA2" stroke="#A47AA2"/>
<path d="M234 0H234.25H242.75C243 -0.0833333 243.083 0 243 0.25V3.75V4H243.25H246.75H247V4.25V16.75V17H246.75H243.25H243V17.25V21.75V22H242.75H234.25H234V21.75V17.25V17H233.75H230.25C230 17.0833 229.917 17 230 16.75V4.25V4H230.25H233.75H234V3.75V0.25V0ZM234 4V4.5V17H234.5H243V4.5V4H234.5H234Z" fill="#A47AA2"/>
<path d="M243 4V3.75V0.25C243.083 0 243 -0.0833333 242.75 0H234.25H234V0.25V3.75V4M243 4H243.25H246.75H247V4.25V16.75V17H246.75H243.25H243M243 4V4.5V17M243 4H234.5H234M243 17V17.25V21.75V22H242.75H234.25H234V21.75V17.25V17M243 17H234.5H234M234 17H233.75H230.25C230 17.0833 229.917 17 230 16.75V4.25V4H230.25H233.75H234M234 17V4.5V4" stroke="#A47AA2"/>
<path d="M0 4H0.25H42.75C43 3.91667 43.0833 4 43 4.25V8.75V9H43.25H46.75H47V9.25V12.75V13H46.75H43.25H43V13.25V16.75C43.0833 17 43 17.0833 42.75 17H0.25H0V16.75V4.25V4Z" fill="#381060" stroke="#381060"/>
<path d="M269 4H269.25H312.75C313 3.91667 313.083 4 313 4.25V16.75V17H312.75H269.25C269 17.0833 268.917 17 269 16.75V13.25V13H268.75H265.25H265V12.75V9.25V9H265.25H268.75H269V8.75V4.25V4Z" fill="#381060" stroke="#381060"/>
</g>
<defs>
<clipPath id="clip0_2205_308">
<rect width="313" height="22" fill="white"/>
</clipPath>
</defs>
</svg>
