<svg width="154" height="191" viewBox="0 0 154 191" fill="none" xmlns="http://www.w3.org/2000/svg">
<g clip-path="url(#clip0_2204_10)">
<path d="M120 3H121V4H120V3Z" fill="#0E0A1A" stroke="#0E0A1A" stroke-width="2.5"/>
<path d="M104 4H105V5H104V4Z" fill="#0E0A1A" stroke="#0E0A1A" stroke-width="2.5"/>
<path d="M104 9H105V10H104V9Z" fill="#0E0A1A" stroke="#0E0A1A" stroke-width="2.5"/>
<path d="M55 16H56V17H55V16Z" fill="#0E0A1A" stroke="#0E0A1A" stroke-width="2.5"/>
<path d="M3 20H4V21H3V20Z" fill="#0E0A1A" stroke="#0E0A1A" stroke-width="2.5"/>
<path d="M64 21H65V22H64V21Z" fill="#0E0A1A" stroke="#0E0A1A" stroke-width="2.5"/>
<path d="M88 26H89V27H88V26Z" fill="#0E0A1A" stroke="#0E0A1A" stroke-width="2.5"/>
<path d="M87 31H88V32H87V31Z" fill="#0E0A1A" stroke="#0E0A1A" stroke-width="2.5"/>
<path d="M14 32H15V33H14V32Z" fill="#0E0A1A" stroke="#0E0A1A" stroke-width="2.5"/>
<path d="M151 34H152V35H151V34Z" fill="#0E0A1A" stroke="#0E0A1A" stroke-width="2.5"/>
<path d="M147.25 40.5L148 41.25L147.75 41.5L147 40.75L147.25 40.5Z" fill="#0E0A1A" stroke="#0E0A1A" stroke-width="2.5"/>
<path d="M14 49H15V50H14V49Z" fill="#0E0A1A" stroke="#0E0A1A" stroke-width="2.5"/>
<path d="M142 55H143V56H142V55Z" fill="#0E0A1A" stroke="#0E0A1A" stroke-width="2.5"/>
<path d="M57 60H58V61H57V60Z" fill="#0E0A1A" stroke="#0E0A1A" stroke-width="2.5"/>
<path d="M4 61H5V62H4V61Z" fill="#0E0A1A" stroke="#0E0A1A" stroke-width="2.5"/>
<path d="M149 63H150V64H149V63Z" fill="#0E0A1A" stroke="#0E0A1A" stroke-width="2.5"/>
<path d="M59 65H60V66H59V65Z" fill="#0E0A1A" stroke="#0E0A1A" stroke-width="2.5"/>
<path d="M149 69H150V70H149V69Z" fill="#0E0A1A" stroke="#0E0A1A" stroke-width="2.5"/>
<path d="M143 75H144V76H143V75Z" fill="#0E0A1A" stroke="#0E0A1A" stroke-width="2.5"/>
<path d="M11 76H12V77H11V76Z" fill="#0E0A1A" stroke="#0E0A1A" stroke-width="2.5"/>
<path d="M15 80H16V81H15V80Z" fill="#0E0A1A" stroke="#0E0A1A" stroke-width="2.5"/>
<path d="M150 84H151V85H150V84Z" fill="#0E0A1A" stroke="#0E0A1A" stroke-width="2.5"/>
<path d="M11 103H12V104H11V103Z" fill="#0E0A1A" stroke="#0E0A1A" stroke-width="2.5"/>
<path d="M144 111H145V112H144V111Z" fill="#0E0A1A" stroke="#0E0A1A" stroke-width="2.5"/>
<path d="M10 120H11V121H10V120Z" fill="#0E0A1A" stroke="#0E0A1A" stroke-width="2.5"/>
<path d="M57 129H58V130H57V129Z" fill="#0E0A1A" stroke="#0E0A1A" stroke-width="2.5"/>
<path d="M94 130H95V131H94V130Z" fill="#0E0A1A" stroke="#0E0A1A" stroke-width="2.5"/>
<path d="M71 133H72V134H71V133Z" fill="#0E0A1A" stroke="#0E0A1A" stroke-width="2.5"/>
<path d="M82 133H83V134H82V133Z" fill="#0E0A1A" stroke="#0E0A1A" stroke-width="2.5"/>
<path d="M93 139H94V140H93V139Z" fill="#0E0A1A" stroke="#0E0A1A" stroke-width="2.5"/>
<path d="M145 139H146V140H145V139Z" fill="#0E0A1A" stroke="#0E0A1A" stroke-width="2.5"/>
<path d="M142 149H143V150H142V149Z" fill="#0E0A1A" stroke="#0E0A1A" stroke-width="2.5"/>
<path d="M3 153H4V154H3V153Z" fill="#0E0A1A" stroke="#0E0A1A" stroke-width="2.5"/>
<path d="M13 163H14V164H13V163Z" fill="#0E0A1A" stroke="#0E0A1A" stroke-width="2.5"/>
<path d="M57 168H58V169H57V168Z" fill="#0E0A1A" stroke="#0E0A1A" stroke-width="2.5"/>
<path d="M59 169H60V170H59V169Z" fill="#0E0A1A" stroke="#0E0A1A" stroke-width="2.5"/>
<path d="M139 169H140V170H139V169Z" fill="#0E0A1A" stroke="#0E0A1A" stroke-width="2.5"/>
<path d="M22 176H23V177H22V176Z" fill="#0E0A1A" stroke="#0E0A1A" stroke-width="2.5"/>
<path d="M109 178H110V179H109V178Z" fill="#0E0A1A" stroke="#0E0A1A" stroke-width="2.5"/>
<path d="M129 178H130V179H129V178Z" fill="#0E0A1A" stroke="#0E0A1A" stroke-width="2.5"/>
<path d="M140 181H141V182H140V181Z" fill="#0E0A1A" stroke="#0E0A1A" stroke-width="2.5"/>
<path d="M44 182H45V183H44V182Z" fill="#0E0A1A" stroke="#0E0A1A" stroke-width="2.5"/>
<path d="M112 188H113V189H112V188Z" fill="#0E0A1A" stroke="#0E0A1A" stroke-width="2.5"/>
<path d="M0 0H0.25H67.75H68V0.25V51.75V52H68.25H85.75H86V51.75V45.75L86.5 45.25L86 44.75V0.25V0H86.25H153.75H154V0.25V190.75V191H153.75H86.25H86V190.75V139.25V139H85.75H68.25H68V139.25V190.75V191H67.75H0.25H0V190.75V0.25V0ZM120 3V4H121V3H120ZM104 4V5H105V4H104ZM104 9V10H105V9H104ZM55 16V17H56V16H55ZM16 17V17.5V80H15V81H16V81.5V174H16.5H51V122.5V122H51.5H103V122.5V174H103.5H138V17.5V17H103.5H103V17.5V70H51.5H51V17.5V17H16.5H16ZM3 20V21H4V20H3ZM64 21V22H65V21H64ZM88 26V27H89V26H88ZM87 31V32H88V31H87ZM14 32V33H15V32H14ZM151 34V35H152V34H151ZM14 49V50H15V49H14ZM142 55V56H143V55H142ZM57 60V61H58V60H57ZM4 61V62H5V61H4ZM149 63V64H150V63H149ZM59 65V66H60V65H59ZM149 69V70H150V69H149ZM143 75V76H144V75H143ZM11 76V77H12V76H11ZM150 84V85H151V84H150ZM11 103V104H12V103H11ZM144 111V112H145V111H144ZM10 120V121H11V120H10ZM57 129V130H58V129H57ZM94 130V131H95V130H94ZM71 133V134H72V133H71ZM82 133V134H83V133H82ZM93 139V140H94V139H93ZM145 139V140H146V139H145ZM142 149V150H143V149H142ZM3 153V154H4V153H3ZM13 163V164H14V163H13ZM57 168V169H58V168H57ZM59 169V170H60V169H59ZM139 169V170H140V169H139ZM22 176V177H23V176H22ZM109 178V179H110V178H109ZM129 178V179H130V178H129ZM140 181V182H141V181H140ZM44 182V183H45V182H44ZM112 188V189H113V188H112Z" fill="#0E0A1B" stroke="#0E0A1B" stroke-width="2.5"/>
<path d="M16 17H16.25H50.75H51V17.25V69.75V70H51.25H102.75H103V69.75V17.25V17H103.25H137.75H138V17.25V63.25L137.5 63.75L138 64.25V78.75C137.333 79.0833 137.333 79.4167 138 79.75V104.75C138.083 105 138 105.083 137.75 105H16.25H16V104.75V31.25V31H17V30H16V29.75V17.25V17ZM26 26V27H27V26H26ZM126 26V27H127V26H126ZM107 30V31H108V30H107ZM30 34V35H31V34H30ZM42 35V36H43V35H42ZM123 37V38H124V37H123ZM36 43V44H37V43H36ZM117 46V47H118V46H117ZM41 48V49H42V48H41ZM121 54V55H122V54H121ZM42 56V57H43V56H42ZM69 73V74H70V73H69ZM78 73V74H79V73H78ZM56 75V76H57V75H56ZM47 81V82H48V81H47ZM133 85V86H134V85H133ZM103 86V87H104V86H103ZM80 93V94H81V93H80ZM54 100V101H55V100H54ZM104 102V103H105V102H104ZM126 102V103H127V102H126Z" fill="#FFFEFE" stroke="#FFFEFE" stroke-width="2.5"/>
<path d="M26 26H27V27H26V26Z" fill="#FEFEFE" stroke="#FEFEFE" stroke-width="2.5"/>
<path d="M126 26H127V27H126V26Z" fill="#FEFEFE" stroke="#FEFEFE" stroke-width="2.5"/>
<path d="M16 30H17V31H16V30Z" fill="#FEFEFE" stroke="#FEFEFE" stroke-width="2.5"/>
<path d="M107 30H108V31H107V30Z" fill="#FEFEFE" stroke="#FEFEFE" stroke-width="2.5"/>
<path d="M30 34H31V35H30V34Z" fill="#FEFEFE" stroke="#FEFEFE" stroke-width="2.5"/>
<path d="M42 35H43V36H42V35Z" fill="#FEFEFE" stroke="#FEFEFE" stroke-width="2.5"/>
<path d="M123 37H124V38H123V37Z" fill="#FEFEFE" stroke="#FEFEFE" stroke-width="2.5"/>
<path d="M36 43H37V44H36V43Z" fill="#FEFEFE" stroke="#FEFEFE" stroke-width="2.5"/>
<path d="M117 46H118V47H117V46Z" fill="#FEFEFE" stroke="#FEFEFE" stroke-width="2.5"/>
<path d="M41 48H42V49H41V48Z" fill="#FEFEFE" stroke="#FEFEFE" stroke-width="2.5"/>
<path d="M121 54H122V55H121V54Z" fill="#FEFEFE" stroke="#FEFEFE" stroke-width="2.5"/>
<path d="M42 56H43V57H42V56Z" fill="#FEFEFE" stroke="#FEFEFE" stroke-width="2.5"/>
<path d="M69 73H70V74H69V73Z" fill="#FEFEFE" stroke="#FEFEFE" stroke-width="2.5"/>
<path d="M78 73H79V74H78V73Z" fill="#FEFEFE" stroke="#FEFEFE" stroke-width="2.5"/>
<path d="M56 75H57V76H56V75Z" fill="#FEFEFE" stroke="#FEFEFE" stroke-width="2.5"/>
<path d="M47 81H48V82H47V81Z" fill="#FEFEFE" stroke="#FEFEFE" stroke-width="2.5"/>
<path d="M133 85H134V86H133V85Z" fill="#FEFEFE" stroke="#FEFEFE" stroke-width="2.5"/>
<path d="M103 86H104V87H103V86Z" fill="#FEFEFE" stroke="#FEFEFE" stroke-width="2.5"/>
<path d="M80 93H81V94H80V93Z" fill="#FEFEFE" stroke="#FEFEFE" stroke-width="2.5"/>
<path d="M54 100H55V101H54V100Z" fill="#FEFEFE" stroke="#FEFEFE" stroke-width="2.5"/>
<path d="M104 102H105V103H104V102Z" fill="#FEFEFE" stroke="#FEFEFE" stroke-width="2.5"/>
<path d="M126 102H127V103H126V102Z" fill="#FEFEFE" stroke="#FEFEFE" stroke-width="2.5"/>
<path d="M16 105H16.25H137.75H138V105.25V173.75V174H137.75H103.25H103V173.75V122.25V122H102.75H51.25H51V122.25V173.75V174H50.75H16.25H16V173.75V105.25V105Z" fill="#A47AA2" stroke="#A47AA2" stroke-width="2.5"/>
</g>
<defs>
<clipPath id="clip0_2204_10">
<rect width="154" height="191" fill="white"/>
</clipPath>
</defs>
</svg>
