<svg width="174" height="190" viewBox="0 0 174 190" fill="none" xmlns="http://www.w3.org/2000/svg">
<g clip-path="url(#clip0_2205_13)">
<path d="M17 17H17.25H51.75H52V17.25V69.75C51.9167 70 52 70.0833 52.25 70H68.75H69V69.75V52.25V52H69.25H86.75H87V51.75V35.25V35H87.25H103.75H104V34.75V17.25V17H104.25H156.75H157V17.25V34.75V35H156.75H139.25H139V35.25V51.75V52H138.75H122.25H122V52.25V69.75V70H121.75H104.25H104V70.25V104.75V105H103.75H17.25H17V104.75V17.25V17Z" fill="white" stroke="white"/>
<path d="M17 105H17.25H103.75H104V105.25V121.75V122H104.25H121.75H122V122.25V138.75V139H122.25H138.75H139V139.25V156.75V157H139.25H156.75H157V157.25V173.75V174H156.75H104.25H104V173.75V157.25V157H103.75H87.25H87V156.75V139.25V139H86.75H69.25H69V138.75V122.25V122H68.75H52.25H52V122.25V173.75V174H51.75H17.25H17V173.75V105.25V105Z" fill="#A47AA2" stroke="#A47AA2"/>
<path d="M0 0H0.25H68.75H69V0.25V34.75V35H69.25H86.75H87V34.75V17.25V17H87.25H103.75H104V16.75V0.25V0H104.25H173.75H174V0.25V51.75V52H173.75H139.25H139V52.25V69.75V70H138.75H122.25H122V70.25V121.75V122H122.25H138.75H139V122.25V138.75C138.917 139 139 139.083 139.25 139H173.75H174V139.25V189.75V190H173.75H104.25C104 190.083 103.917 190 104 189.75V174.25V174H103.75H87.25H87V173.75V157.25V157H86.75H69.25H69V157.25V189.75V190H68.75H0.25H0V189.75V0.25V0ZM17 17V17.5V174H17.5H52V122.5V122H52.5H69V122.5V139H69.5H87V139.5V157H87.5H104V157.5V174H104.5H157V157.5V157H139.5H139V139.5V139H122.5H122V122.5V122H104.5H104V70.5V70H104.5H122V52.5V52H122.5H139V35.5V35H139.5H157V17.5V17H104.5H104V17.5V35H87.5H87V35.5V52H69.5H69V52.5V70H52.5C52.1667 70 52 70 52 70V17.5V17H17.5H17Z" fill="#0E0A1A"/>
<path d="M87 35H86.75H69.25H69V34.75V0.25V0H68.75H0.25H0V0.25V189.75V190H0.25H68.75H69V189.75V157.25V157H69.25H86.75H87M87 35V34.75V17.25V17H87.25H103.75H104M87 35H87.5H104V17.5V17M87 35V35.5V52H69.5H69V52.5V70H52.5C52.1667 70 52 70 52 70V17.5V17H17.5H17V17.5V174H17.5H52V122.5V122H52.5H69V122.5V139H69.5H87V139.5V157M104 17V16.75V0.25V0H104.25H173.75H174V0.25V51.75V52H173.75H139.25H139M104 17H104.5H157V17.5V35H139.5H139V35.5V52M139 52V52.25V69.75V70H138.75H122.25H122M139 52H122.5H122V52.5V70M122 70V70.25V121.75V122M122 70H104.5H104V70.5V122H104.5H122M122 122H122.25H138.75H139V122.25V138.75C138.917 139 139 139.083 139.25 139H173.75H174V139.25V189.75V190H173.75H104.25C104 190.083 103.917 190 104 189.75V174.25V174M122 122V122.5V139H122.5H139V139.5V157H139.5H157V157.5V174H104.5H104M104 174H103.75H87.25H87V173.75V157.25V157M104 174V157.5V157H87.5H87" stroke="#0E0A1A"/>
</g>
<defs>
<clipPath id="clip0_2205_13">
<rect width="174" height="190" fill="white"/>
</clipPath>
</defs>
</svg>
