<svg width="872" height="628" viewBox="0 0 872 628" fill="none" xmlns="http://www.w3.org/2000/svg">
<g clip-path="url(#clip0_2205_21)">
<path d="M262 18H262.25H278.75C279 17.9167 279.083 18 279 18.25V121.75V122H279.25H296.75H297V122.25V139.75V140H297.25H313.75H314V139.75V122.25V122H314.25H331.75H332V122.25V139.75V140H331.75H314.25H314V140.25V174.75V175H314.25H348.75H349V175.25V191.75V192H348.75H314.25C314 191.917 313.917 192 314 192.25V209.75V210H313.75H279.25H279V209.75V192.25V192H278.75H262.25H262V191.75V175.25V175H262.25H296.75H297V174.75V157.25V157H296.75H279.25H279V156.75V140.25V140H278.75H262.25C262 140.083 261.917 140 262 139.75V18.25V18Z" fill="#381060"/>
<path d="M314 140H313.75H297.25H297V139.75V122.25V122H296.75H279.25H279V121.75V18.25C279.083 18 279 17.9167 278.75 18H262.25H262V18.25V139.75C261.917 140 262 140.083 262.25 140H278.75H279V140.25V156.75V157H279.25H296.75H297V157.25V174.75V175H296.75H262.25H262V175.25V191.75V192H262.25H278.75H279V192.25V209.75V210H279.25H313.75H314V209.75V192.25C313.917 192 314 191.917 314.25 192H348.75H349V191.75V175.25V175H348.75H314.25H314V174.75V140.25V140ZM314 140V139.75V122.25V122H314.25H331.75H332V122.25V139.75V140H331.75H314.25H314Z" stroke="#381060"/>
<path d="M593 18H593.25H610.75C611 17.9167 611.083 18 611 18.25V139.75V140H610.75H593.25H593V140.25V156.75V157H592.75H576.25H576V157.25V174.75V175H576.25H610.75H611V175.25V191.75V192H610.75H593.25H593V192.25V209.75V210H592.75H558.25H558V209.75V192.25V192H557.75H523.25H523V191.75V175.25V175H523.25H557.75H558V174.75V140.25V140H557.75H541.25H541V139.75V122.25V122H541.25H557.75H558V122.25V139.75V140H558.25H575.75H576V139.75V122.25V122H576.25H592.75C593 122.083 593.083 122 593 121.75V18.25V18Z" fill="#381060"/>
<path d="M558 140V140.25V174.75V175H557.75H523.25H523V175.25V191.75V192H523.25H557.75H558V192.25V209.75V210H558.25H592.75H593V209.75V192.25V192H593.25H610.75H611V191.75V175.25V175H610.75H576.25H576V174.75V157.25V157H576.25H592.75H593V156.75V140.25V140H593.25H610.75H611V139.75V18.25C611.083 18 611 17.9167 610.75 18H593.25H593V18.25V121.75C593.083 122 593 122.083 592.75 122H576.25H576V122.25V139.75V140H575.75H558.25H558ZM558 140H557.75H541.25H541V139.75V122.25V122H541.25H557.75H558V122.25V139.75V140Z" stroke="#381060"/>
<path d="M35 227H35.25H52.75H53V227.25V261.75V262H52.75H35.25H35V261.75V227.25V227Z" fill="#381060" stroke="#381060"/>
<path d="M384 227H384.25H400.75H401V227.25V244.75V245H400.75H384.25H384V245.25V261.75V262H384.25H418.75H419V262.25V296.75V297H418.75H401.25H401V296.75V280.25V280H400.75H384.25H384V279.75V262.25V262H383.75H349.25H349V262.25V279.75V280H349.25H365.75H366V280.25V296.75V297H366.25H383.75H384V297.25V314.75V315H384.25H400.75H401V315.25V331.75V332H400.75H384.25H384V331.75V315.25V315H383.75H366.25H366V314.75V297.25V297H365.75H349.25H349V296.75V280.25V280H348.75H297.25H297V279.75V262.25C297.083 262 297 261.917 296.75 262H227.25C227 262.083 226.917 262 227 261.75V245.25V245H227.25H296.75C297 244.917 297.083 245 297 245.25V261.75C296.917 262 297 262.083 297.25 262H348.75H349V261.75V245.25V245H349.25H383.75H384V244.75V227.25V227Z" fill="#381060"/>
<path d="M384 245H384.25H400.75H401V244.75V227.25V227H400.75H384.25H384V227.25V244.75V245ZM384 245V245.25V261.75V262M384 245H383.75H349.25H349V245.25V261.75V262M384 262H384.25H418.75H419V262.25V296.75V297H418.75H401.25H401V296.75V280.25V280H400.75H384.25H384V279.75V262.25V262ZM384 262H383.75H349.25H349M349 262V262.25V279.75V280M349 262H348.75H297.25C297 262.083 296.917 262 297 261.75V245.25C297.083 245 297 244.917 296.75 245H227.25H227V245.25V261.75C226.917 262 227 262.083 227.25 262H296.75C297 261.917 297.083 262 297 262.25V279.75V280H297.25H348.75H349M349 280H349.25H365.75H366V280.25V296.75V297M349 280V280.25V296.75V297H349.25H365.75H366M366 297H366.25H383.75H384V297.25V314.75V315M366 297V297.25V314.75V315H366.25H383.75H384M384 315H384.25H400.75H401V315.25V331.75V332H400.75H384.25H384V331.75V315.25V315Z" stroke="#381060"/>
<path d="M471 227H471.25H488.75H489V227.25V244.75V245H489.25H522.75H523V245.25V261.75C522.917 262 523 262.083 523.25 262H575.75H576V261.75V245.25C575.917 245 576 244.917 576.25 245H644.75H645V245.25V261.75C645.083 262 645 262.083 644.75 262H576.25C576 261.917 575.917 262 576 262.25V279.75V280H575.75H523.25H523V280.25V296.75V297H522.75H506.25H506V297.25V314.75V315H505.75H489.25H489V315.25V331.75V332H488.75H471.25H471V331.75V315.25V315H471.25H488.75H489V314.75V297.25V297H489.25H505.75H506V296.75V280.25V280H506.25H522.75H523V279.75V262.25V262H522.75H489.25H489V262.25V279.75V280H488.75H471.25H471V280.25V296.75V297H470.75H454.25H454V296.75V262.25V262H454.25H488.75H489V261.75V245.25V245H488.75H471.25H471V244.75V227.25V227Z" fill="#381060"/>
<path d="M489 245V244.75V227.25V227H488.75H471.25H471V227.25V244.75V245H471.25H488.75H489ZM489 245H489.25H522.75H523V245.25V261.75C522.917 262 523 262.083 523.25 262H575.75H576V261.75V245.25C575.917 245 576 244.917 576.25 245H644.75H645V245.25V261.75C645.083 262 645 262.083 644.75 262H576.25C576 261.917 575.917 262 576 262.25V279.75V280H575.75H523.25H523M489 245V245.25V261.75V262M523 280V280.25V296.75V297H522.75H506.25H506M523 280H522.75H506.25H506V280.25V296.75V297M523 280V279.75V262.25V262H522.75H489.25H489M506 297V297.25V314.75V315H505.75H489.25H489M506 297H505.75H489.25H489V297.25V314.75V315M489 315V315.25V331.75V332H488.75H471.25H471V331.75V315.25V315H471.25H488.75H489ZM489 262V262.25V279.75V280H488.75H471.25H471V280.25V296.75V297H470.75H454.25H454V296.75V262.25V262H454.25H488.75H489Z" stroke="#381060"/>
<path d="M820 227H820.25H836.75H837V227.25V261.75V262H836.75H820.25H820V261.75V227.25V227Z" fill="#381060" stroke="#381060"/>
<path d="M18 297H18.25H34.75H35V297.25V348.75V349H35.25H52.75H53V349.25V383.75V384H53.25H69.75H70V384.25V401.75V402H70.25H86.75H87V402.25V418.75V419H87.25H121.75H122V419.25V436.75V437H122.25H156.75H157V437.25V453.75C156.917 454 157 454.083 157.25 454H191.75H192V453.75V437.25V437H192.25H209.75H210V436.75V402.25V402H210.25H243.75H244V401.75V384.25V384H244.25H261.75H262V383.75V367.25V367H262.25H278.75H279V366.75V349.25V349H279.25H348.75H349V349.25V366.75V367H349.25H365.75H366V367.25V383.75V384H365.75H262.25C262 383.917 261.917 384 262 384.25V401.75V402H261.75H244.25H244V402.25V436.75V437H243.75H227.25C227 436.917 226.917 437 227 437.25V488.75V489H226.75H210.25C210 488.917 209.917 489 210 489.25V593.75V594H209.75H175.25H175V593.75V577.25V577H174.75H122.25H122V576.75V559.25V559H121.75H87.25H87V558.75V542.25V542H86.75H70.25H70V541.75V524.25V524H69.75H53.25H53V523.75V489.25V489H52.75H35.25C35 489.083 34.9167 489 35 488.75V437.25V437H35.25H52.75H53V436.75V402.25V402H52.75H35.25H35V401.75V367.25V367H34.75H18.25C18 367.083 17.9167 367 18 366.75V297.25V297ZM53 437V437.5V454H53.5H70V437.5V437H53.5H53ZM70 454V454.5V472H70.5H87V454.5V454H70.5H70ZM87 472V472.5V489H87.5H105V472.5V472H87.5H87ZM105 489V489.5V507H105.5H140V489.5V489H105.5H105Z" fill="#381060"/>
<path d="M244 402H243.75H210.25H210V402.25V436.75V437H209.75H192.25H192V437.25V453.75V454H191.75H157.25C157 454.083 156.917 454 157 453.75V437.25V437H156.75H122.25H122V436.75V419.25V419H121.75H87.25H87V418.75V402.25V402H86.75H70.25H70V401.75V384.25V384H69.75H53.25H53V383.75V349.25V349H52.75H35.25H35V348.75V297.25V297H34.75H18.25H18V297.25V366.75C17.9167 367 18 367.083 18.25 367H34.75H35V367.25V401.75V402H35.25H52.75H53V402.25V436.75V437M244 402V401.75V384.25V384H244.25H261.75H262V383.75V367.25V367H262.25H278.75H279V366.75V349.25V349H279.25H348.75H349V349.25V366.75V367H349.25H365.75H366V367.25V383.75V384H365.75H262.25C262 383.917 261.917 384 262 384.25V401.75V402H261.75H244.25H244ZM244 402V402.25V436.75V437H243.75H227.25C227 436.917 226.917 437 227 437.25V488.75V489H226.75H210.25C210 488.917 209.917 489 210 489.25V593.75V594H209.75H175.25H175V593.75V577.25V577H174.75H122.25H122V576.75V559.25V559H121.75H87.25H87V558.75V542.25V542H86.75H70.25H70V541.75V524.25V524H69.75H53.25H53V523.75V489.25V489H52.75H35.25C35 489.083 34.9167 489 35 488.75V437.25V437H35.25H52.75H53M53 437V437.5V454H53.5H70M53 437H53.5H70V437.5V454M70 454V454.5V472H70.5H87M70 454H70.5H87V454.5V472M87 472V472.5V489H87.5H105M87 472H87.5H105V472.5V489M105 489V489.5V507H105.5H140V489.5V489H105.5H105Z" stroke="#381060"/>
<path d="M837 297H837.25H854.75C855 296.917 855.083 297 855 297.25V366.75V367H854.75H837.25H837V367.25V401.75C837.083 402 837 402.083 836.75 402H820.25H820V402.25V436.75V437H820.25H836.75C837 436.917 837.083 437 837 437.25V488.75V489H836.75H820.25H820V489.25V523.75V524H819.75H802.25H802V524.25V541.75V542H801.75H785.25H785V542.25V558.75V559H784.75H750.25C750 558.917 749.917 559 750 559.25V576.75V577H749.75H698.25C698 576.917 697.917 577 698 577.25V593.75V594H697.75H663.25H663V593.75V489.25C663.083 489 663 488.917 662.75 489H645.25H645V488.75V437.25C645.083 437 645 436.917 644.75 437H628.25H628V436.75V402.25V402H627.75H611.25H611V401.75V384.25C611.083 384 611 383.917 610.75 384H506.25C506 384.083 505.917 384 506 383.75V367.25V367H506.25H522.75H523V366.75V349.25C522.917 349 523 348.917 523.25 349H592.75H593V349.25V366.75V367H593.25H610.75H611V367.25V383.75V384H611.25H627.75H628V384.25V401.75V402H628.25H662.75H663V402.25V436.75C662.917 437 663 437.083 663.25 437H679.75H680V437.25V453.75V454H680.25H714.75H715V453.75V437.25V437H715.25H749.75H750V436.75V419.25V419H750.25H784.75H785V418.75V402.25V402H785.25H801.75H802V401.75V384.25V384H802.25H819.75H820V383.75V349.25V349H820.25H836.75C837 349.083 837.083 349 837 348.75V297.25V297ZM802 437V437.5V454H802.5H820V437.5V437H802.5H802ZM785 454V454.5V472H785.5H802V454.5V454H785.5H785ZM768 472V472.5V489H768.5H785V472.5V472H768.5H768ZM733 489V489.5V507H733.5H768V489.5V489H733.5H733Z" fill="#381060"/>
<path d="M820 437V436.75V402.25V402H820.25H836.75C837 402.083 837.083 402 837 401.75V367.25V367H837.25H854.75H855V366.75V297.25C855.083 297 855 296.917 854.75 297H837.25H837V297.25V348.75C837.083 349 837 349.083 836.75 349H820.25H820V349.25V383.75V384H819.75H802.25H802V384.25V401.75V402H801.75H785.25H785V402.25V418.75V419H784.75H750.25H750V419.25V436.75V437H749.75H715.25H715V437.25V453.75V454H714.75H680.25H680V453.75V437.25V437H679.75H663.25C663 437.083 662.917 437 663 436.75V402.25V402H662.75H628.25H628M820 437H820.25H836.75C837 436.917 837.083 437 837 437.25V488.75V489H836.75H820.25H820V489.25V523.75V524H819.75H802.25H802V524.25V541.75V542H801.75H785.25H785V542.25V558.75V559H784.75H750.25C750 558.917 749.917 559 750 559.25V576.75V577H749.75H698.25C698 576.917 697.917 577 698 577.25V593.75V594H697.75H663.25H663V593.75V489.25C663.083 489 663 488.917 662.75 489H645.25H645V488.75V437.25C645.083 437 645 436.917 644.75 437H628.25H628V436.75V402.25V402M820 437V437.5V454H802.5H802M820 437H802.5H802V437.5V454M628 402H627.75H611.25H611V401.75V384.25C611.083 384 611 383.917 610.75 384H506.25C506 384.083 505.917 384 506 383.75V367.25V367H506.25H522.75H523V366.75V349.25C522.917 349 523 348.917 523.25 349H592.75H593V349.25V366.75V367H593.25H610.75H611V367.25V383.75V384H611.25H627.75H628V384.25V401.75V402ZM802 454V454.5V472H785.5H785M802 454H785.5H785V454.5V472M785 472V472.5V489H768.5H768M785 472H768.5H768V472.5V489M768 489V489.5V507H733.5H733V489.5V489H733.5H768Z" stroke="#381060"/>
<path d="M558 419H558.25H575.75H576V419.25V453.75V454H575.75H541.25H541V454.25V488.75V489H540.75H506.25H506V488.75V472.25V472H506.25H522.75H523V471.75V454.25V454H523.25H540.75H541V453.75V437.25V437H541.25H557.75H558V436.75V419.25V419Z" fill="#381060"/>
<path d="M541 454H541.25H575.75H576V453.75V419.25V419H575.75H558.25H558V419.25V436.75V437H557.75H541.25H541V437.25V453.75V454ZM541 454V454.25V488.75V489H540.75H506.25H506V488.75V472.25V472H506.25H522.75H523V471.75V454.25V454H523.25H540.75H541Z" stroke="#381060"/>
<path d="M593 454H593.25H610.75H611V454.25V488.75V489H610.75H576.25H576V489.25V523.75V524H575.75H541.25H541V523.75V507.25V507H541.25H557.75H558V506.75V489.25V489H558.25H575.75H576V488.75V472.25V472H576.25H592.75H593V471.75V454.25V454Z" fill="#381060"/>
<path d="M576 489H576.25H610.75H611V488.75V454.25V454H610.75H593.25H593V454.25V471.75V472H592.75H576.25H576V472.25V488.75V489ZM576 489V489.25V523.75V524H575.75H541.25H541V523.75V507.25V507H541.25H557.75H558V506.75V489.25V489H558.25H575.75H576Z" stroke="#381060"/>
<path d="M261 16H262V17H261V16Z" fill="#0E0A1A" stroke="#0E0A1A"/>
<path d="M712 88H713V89H712V88Z" fill="#0E0A1A" stroke="#0E0A1A"/>
<path d="M558 121H559V122H558V121Z" fill="#0E0A1A" stroke="#0E0A1A"/>
<path d="M152 155H153V156H152V155Z" fill="#0E0A1A" stroke="#0E0A1A"/>
<path d="M815 176H816V177H815V176Z" fill="#0E0A1A" stroke="#0E0A1A"/>
<path d="M122 187H123V188H122V187Z" fill="#0E0A1A" stroke="#0E0A1A"/>
<path d="M305 310H306V311H305V310Z" fill="#0E0A1A" stroke="#0E0A1A"/>
<path d="M161 316H162V317H161V316Z" fill="#0E0A1A" stroke="#0E0A1A"/>
<path d="M419 343H420V344H419V343Z" fill="#0E0A1A" stroke="#0E0A1A"/>
<path d="M860 358H861V359H860V358Z" fill="#0E0A1A" stroke="#0E0A1A"/>
<path d="M411 392H412V393H411V392Z" fill="#0E0A1A" stroke="#0E0A1A"/>
<path d="M407 402H408V403H407V402Z" fill="#0E0A1A" stroke="#0E0A1A"/>
<path d="M398 408H399V409H398V408Z" fill="#0E0A1A" stroke="#0E0A1A"/>
<path d="M459 409H460V410H459V409Z" fill="#0E0A1A" stroke="#0E0A1A"/>
<path d="M636 460H637V461H636V460Z" fill="#0E0A1A" stroke="#0E0A1A"/>
<path d="M289 475H290V476H289V475Z" fill="#0E0A1A" stroke="#0E0A1A"/>
<path d="M757 489H758V490H757V489Z" fill="#0E0A1A" stroke="#0E0A1A"/>
<path d="M365 576H366V577H365V576Z" fill="#0E0A1A" stroke="#0E0A1A"/>
<path d="M214 598H215V599H214V598Z" fill="#0E0A1A" stroke="#0E0A1A"/>
<path d="M279 35H279.25H313.75C314 34.9167 314.083 35 314 35.25V51.75V52H314.25H348.75H349V52.25V69.75V70H349.25H365.75H366V70.25V86.75V87H366.25H383.75H384V87.25V104.75C383.917 105 384 105.083 384.25 105H488.75H489V104.75V87.25V87H489.25H505.75H506V86.75V70.25V70H506.25H522.75H523V69.75V52.25V52H523.25H557.75C558 52.0833 558.083 52 558 51.75V35.25V35H558.25H592.75H593V35.25V51.75V52H592.75H576.25H576V52.25V69.75V70H575.75H558.25H558V70.25V86.75V87H557.75H541.25H541V87.25V104.75V105H540.75H523.25H523V105.25V121.75V122H523.25H540.75H541V122.25V139.75V140H541.25H557.75H558V140.25V174.75V175H557.75H523.25H523V175.25V191.75V192H522.75H506.25H506V192.25V209.75V210H505.75H489.25H489V210.25V226.75V227H488.75H471.25H471V227.25V261.75V262H470.75H454.25C454 261.917 453.917 262 454 262.25V296.75V297H454.25H470.75H471V296.75V280.25V280H471.25H488.75H489V279.75V262.25V262H489.25H522.75H523V261.75V245.25V245H523.25H540.75H541V244.75V227.25V227H541.25H557.75H558V226.75V210.25V210H558.25H610.75H611V210.25V226.75V227H611.25H644.75H645V227.25V244.75V245H645.25H662.75H663V245.25V261.75V262H662.75H645.25H645V261.75V245.25C645.083 245 645 244.917 644.75 245H593.25H593V244.75V227.25V227H592.75H576.25H576V227.25V261.75V262H575.75H523.25H523V262.25V279.75V280H522.75H506.25H506V280.25V296.75V297H505.75H489.25H489V297.25V314.75V315H488.75H471.25H471V315.25V331.75V332H470.75H454.25H454V331.75V315.25V315H453.75H419.25H419V315.25V331.75V332H418.75H401.25H401V331.75V315.25V315H400.75H384.25H384V314.75V297.25V297H383.75H366.25H366V296.75V280.25V280H365.75H349.25H349V279.75V262.25V262H348.75H297.25H297V261.75V227.25V227H296.75H279.25H279V227.25V244.75V245H278.75H227.25C227 244.917 226.917 245 227 245.25V261.75V262H226.75H210.25H210V261.75V245.25V245H210.25H226.75H227V244.75V227.25V227H227.25H261.75H262V226.75V210.25C261.917 210 262 209.917 262.25 210H313.75H314V210.25V226.75V227H314.25H331.75H332V227.25V244.75V245H332.25H348.75H349V245.25V261.75V262H349.25H383.75H384V262.25V279.75V280H384.25H400.75H401V280.25V296.75V297H401.25H418.75H419V296.75V262.25C419.083 262 419 261.917 418.75 262H401.25H401V261.75V227.25V227H400.75H384.25H384V226.75V210.25V210H383.75H366.25H366V209.75V192.25V192H365.75H349.25H349V191.75V175.25V175H348.75H314.25H314V174.75V140.25V140H314.25H331.75H332V139.75V122.25V122H332.25H348.75H349V121.75V105.25V105H348.75H332.25H332V104.75V87.25V87H331.75H314.25H314V86.75V70.25V70H313.75H297.25H297V69.75V52.25V52H296.75H279.25H279V51.75V35.25V35Z" fill="#471567"/>
<path d="M523 262H522.75H489.25H489V262.25V279.75V280H488.75H471.25H471V280.25V296.75V297H470.75H454.25H454V296.75V262.25C453.917 262 454 261.917 454.25 262H470.75H471V261.75V227.25V227H471.25H488.75H489V226.75V210.25V210H489.25H505.75H506V209.75V192.25V192H506.25H522.75H523V191.75V175.25V175H523.25H557.75H558V174.75V140.25V140H557.75H541.25H541V139.75V122.25V122H540.75H523.25H523V121.75V105.25V105H523.25H540.75H541V104.75V87.25V87H541.25H557.75H558V86.75V70.25V70H558.25H575.75H576V69.75V52.25V52H576.25H592.75H593V51.75V35.25V35H592.75H558.25H558V35.25V51.75C558.083 52 558 52.0833 557.75 52H523.25H523V52.25V69.75V70H522.75H506.25H506V70.25V86.75V87H505.75H489.25H489V87.25V104.75V105H488.75H384.25C384 105.083 383.917 105 384 104.75V87.25V87H383.75H366.25H366V86.75V70.25V70H365.75H349.25H349V69.75V52.25V52H348.75H314.25H314V51.75V35.25C314.083 35 314 34.9167 313.75 35H279.25H279V35.25V51.75V52H279.25H296.75H297V52.25V69.75V70H297.25H313.75H314V70.25V86.75V87H314.25H331.75H332V87.25V104.75V105H332.25H348.75H349V105.25V121.75V122H348.75H332.25H332V122.25V139.75V140H331.75H314.25H314V140.25V174.75V175H314.25H348.75H349V175.25V191.75V192H349.25H365.75H366V192.25V209.75V210H366.25H383.75H384V210.25V226.75V227H384.25H400.75H401V227.25V261.75V262H401.25H418.75C419 261.917 419.083 262 419 262.25V296.75V297H418.75H401.25H401V296.75V280.25V280H400.75H384.25H384V279.75V262.25V262H383.75H349.25H349M523 262V261.75V245.25V245H523.25H540.75H541V244.75V227.25V227H541.25H557.75H558V226.75V210.25V210H558.25H610.75H611V210.25V226.75V227H611.25H644.75H645V227.25V244.75V245H645.25H662.75H663V245.25V261.75V262H662.75H645.25H645V261.75V245.25C645.083 245 645 244.917 644.75 245H593.25H593V244.75V227.25V227H592.75H576.25H576V227.25V261.75V262H575.75H523.25H523ZM523 262V262.25V279.75V280H522.75H506.25H506V280.25V296.75V297H505.75H489.25H489V297.25V314.75V315H488.75H471.25H471V315.25V331.75V332H470.75H454.25H454V331.75V315.25V315H453.75H419.25H419V315.25V331.75V332H418.75H401.25H401V331.75V315.25V315H400.75H384.25H384V314.75V297.25V297H383.75H366.25H366V296.75V280.25V280H365.75H349.25H349V279.75V262.25V262M349 262H348.75H297.25H297V261.75V227.25V227H296.75H279.25H279V227.25V244.75V245H278.75H227.25C227 244.917 226.917 245 227 245.25V261.75V262H226.75H210.25H210V261.75V245.25V245H210.25H226.75H227V244.75V227.25V227H227.25H261.75H262V226.75V210.25C261.917 210 262 209.917 262.25 210H313.75H314V210.25V226.75V227H314.25H331.75H332V227.25V244.75V245H332.25H348.75H349V245.25V261.75V262Z" stroke="#471567"/>
<path d="M122 140H122.25H139.75H140V140.25V156.75V157H139.75H122.25H122V157.25V209.75C122.083 210 122 210.083 121.75 210H105.25H105V209.75V157.25C104.917 157 105 156.917 105.25 157H121.75H122V156.75V140.25V140Z" fill="#471567"/>
<path d="M122 157H122.25H139.75H140V156.75V140.25V140H139.75H122.25H122V140.25V156.75V157ZM122 157V157.25V209.75C122.083 210 122 210.083 121.75 210H105.25H105V209.75V157.25C104.917 157 105 156.917 105.25 157H121.75H122Z" stroke="#471567"/>
<path d="M733 140H733.25H749.75H750V140.25V156.75V157H750.25H767.75H768V157.25V209.75V210H767.75H750.25H750V209.75V157.25C750.083 157 750 156.917 749.75 157H733.25H733V156.75V140.25V140Z" fill="#471567" stroke="#471567"/>
<path d="M70 192H70.25H86.75H87V192.25V226.75V227H87.25H104.75C105 226.917 105.083 227 105 227.25V296.75V297H105.25H121.75H122V297.25V314.75V315H122.25H139.75H140V315.25V331.75V332H140.25H174.75H175V332.25V348.75C174.917 349 175 349.083 175.25 349H278.75C279 348.917 279.083 349 279 349.25V366.75V367H278.75H262.25H262V367.25V383.75V384H261.75H244.25H244V384.25V401.75V402H243.75H210.25H210V402.25V436.75V437H209.75H192.25H192V437.25V453.75V454H191.75H157.25H157V453.75V437.25V437H156.75H122.25H122V436.75V419.25V419H121.75H87.25H87V418.75V402.25V402H86.75H70.25H70V401.75V384.25V384H69.75H53.25H53V383.75V349.25V349H52.75H35.25C35 349.083 34.9167 349 35 348.75V262.25V262H35.25H52.75H53V261.75V210.25C52.9167 210 53 209.917 53.25 210H69.75H70V209.75V192.25V192Z" fill="#471567" stroke="#471567"/>
<path d="M785 192H785.25H801.75H802V192.25V209.75V210H802.25H819.75C820 209.917 820.083 210 820 210.25V261.75C819.917 262 820 262.083 820.25 262H836.75C837 261.917 837.083 262 837 262.25V348.75V349H836.75H820.25H820V349.25V383.75V384H819.75H802.25H802V384.25V401.75V402H801.75H785.25H785V402.25V418.75V419H784.75H750.25H750V419.25V436.75V437H749.75H715.25C715 436.917 714.917 437 715 437.25V453.75V454H714.75H680.25H680V453.75V437.25V437H679.75H663.25C663 437.083 662.917 437 663 436.75V402.25V402H662.75H628.25H628V401.75V384.25V384H627.75H611.25H611V383.75V367.25V367H610.75H593.25H593V366.75V349.25V349H593.25H697.75C698 349.083 698.083 349 698 348.75V332.25V332H698.25H732.75H733V331.75V315.25V315H733.25H749.75H750V314.75V297.25V297H750.25H767.75H768V296.75V227.25C767.917 227 768 226.917 768.25 227H784.75H785V226.75V192.25V192Z" fill="#471567" stroke="#471567"/>
<path d="M401 419H401.25H470.75C471 418.917 471.083 419 471 419.25V436.75V437H470.75H401.25C401 437.083 400.917 437 401 436.75V419.25V419Z" fill="#471567" stroke="#471567"/>
<path d="M541 419H541.25H557.75H558V419.25V436.75V437H557.75H541.25H541V436.75V419.25V419Z" fill="#471567" stroke="#471567"/>
<path d="M506 454H506.25H522.75H523V454.25V471.75V472H522.75H506.25H506V471.75V454.25V454Z" fill="#471567" stroke="#471567"/>
<path d="M576 454H576.25H592.75H593V454.25V471.75V472H592.75H576.25H576V471.75V454.25V454Z" fill="#471567" stroke="#471567"/>
<path d="M541 489H541.25H557.75H558V489.25V506.75V507H557.75H541.25H541V506.75V489.25V489Z" fill="#471567" stroke="#471567"/>
<path d="M314 559H314.25H331.75H332V559.25V576.75V577H331.75H314.25H314V577.25V593.75V594H313.75H297.25H297V594.25V611.75V612H296.75H244.25H244V611.75V594.25V594H243.75H227.25H227V593.75V577.25V577H227.25H243.75H244V577.25V593.75C243.917 594 244 594.083 244.25 594H296.75H297V593.75V577.25V577H297.25H313.75H314V576.75V559.25V559Z" fill="#471567"/>
<path d="M314 577H314.25H331.75H332V576.75V559.25V559H331.75H314.25H314V559.25V576.75V577ZM314 577V577.25V593.75V594H313.75H297.25H297M314 577H313.75H297.25H297V577.25V593.75V594M297 594V594.25V611.75V612H296.75H244.25H244V611.75V594.25V594H243.75H227.25H227V593.75V577.25V577H227.25H243.75H244V577.25V593.75C243.917 594 244 594.083 244.25 594H296.75H297Z" stroke="#471567"/>
<path d="M541 559H541.25H557.75H558V559.25V576.75V577H558.25H575.75H576V577.25V593.75V594H576.25H627.75H628V593.75V577.25V577H628.25H644.75H645V577.25V593.75V594H644.75H628.25H628V594.25V611.75V612H627.75H576.25H576V611.75V594.25V594H575.75H558.25H558V593.75V577.25V577H557.75H541.25H541V576.75V559.25V559Z" fill="#471567"/>
<path d="M558 577V576.75V559.25V559H557.75H541.25H541V559.25V576.75V577H541.25H557.75H558ZM558 577H558.25H575.75H576V577.25V593.75V594M558 577V577.25V593.75V594H558.25H575.75H576M576 594H576.25H627.75H628M576 594V594.25V611.75V612H576.25H627.75H628V611.75V594.25V594M628 594V593.75V577.25V577H628.25H644.75H645V577.25V593.75V594H644.75H628.25H628Z" stroke="#471567"/>
<path d="M244 0H244.25H278.75H279V0.25V17.75V18H279.25H313.75H314V18.25V34.75V35H314.25H348.75H349V35.25V51.75V52H349.25H365.75H366V52.25V69.75V70H366.25H383.75H384V70.25V86.75V87H384.25H488.75H489V86.75V70.25V70H489.25H505.75H506V69.75V52.25V52H506.25H522.75H523V51.75V35.25V35H523.25H557.75C558 35.0833 558.083 35 558 34.75V18.25V18H558.25H592.75H593V17.75V0.25V0H593.25H627.75H628V0.25V139.75C628.083 140 628 140.083 627.75 140H611.25H611V140.25V174.75V175H611.25H627.75H628V175.25V191.75V192H627.75H611.25H611V192.25V209.75V210H611.25H644.75C645 209.917 645.083 210 645 210.25V226.75V227H645.25H662.75H663V227.25V244.75V245H663.25H679.75C680 244.917 680.083 245 680 245.25V279.75V280H679.75H645.25C645 279.917 644.917 280 645 280.25V296.75V297H644.75H611.25H611V297.25V314.75C611.083 315 611 315.083 610.75 315H558.25H558V315.25V331.75V332H558.25H697.75C698 332.083 698.083 332 698 331.75V315.25V315H698.25H732.75H733V314.75V280.25V280H733.25H749.75C750 280.083 750.083 280 750 279.75V210.25V210H749.75H733.25H733V209.75V157.25C733.083 157 733 156.917 732.75 157H715.25H715V156.75V122.25V122H714.75H698.25H698V121.75V105.25V105H697.75H680.25H680V104.75V87.25V87H679.75H663.25H663V86.75V70.25V70H663.25H697.75C698 69.9167 698.083 70 698 70.25V86.75V87H698.25H732.75H733V87.25V104.75V105H733.25H767.75H768V105.25V121.75V122H768.25H784.75H785V122.25V139.75V140H785.25H801.75H802V140.25V156.75V157H802.25H819.75H820V157.25V191.75V192H820.25H836.75C837 191.917 837.083 192 837 192.25V226.75V227H837.25H854.75C855 226.917 855.083 227 855 227.25V279.75V280H855.25H871.75C872 279.917 872.083 280 872 280.25V366.75V367H871.75H855.25H855V367.25V401.75V402H854.75H837.25H837V402.25V436.75V437H837.25H854.75C855 436.917 855.083 437 855 437.25V506.75V507H854.75H837.25H837V507.25V541.75V542H836.75H820.25H820V542.25V558.75V559H819.75H802.25H802V559.25V576.75V577H801.75H768.25H768V577.25V593.75V594H767.75H698.25C698 593.917 697.917 594 698 594.25V611.75V612H697.75H645.25C645 611.917 644.917 612 645 612.25V627.75C645.083 628 645 628.083 644.75 628H558.25H558V627.75V612.25V612H557.75H541.25H541V611.75V594.25V594H540.75H523.25H523V593.75V577.25V577H522.75H506.25H506V576.75V559.25V559H505.75H366.25H366V559.25V575.75V576H365V577H364.75H349.25H349V577.25V593.75V594H348.75H332.25H332V594.25V611.75V612H331.75H314.25H314V612.25V627.75V628H313.75H227.25H227V627.75V612.25C227.083 612 227 611.917 226.75 612H175.25H175V611.75V594.25C175.083 594 175 593.917 174.75 594H105.25C105 594.083 104.917 594 105 593.75V577.25V577H104.75H70.25H70V576.75V559.25V559H69.75H53.25H53V558.75V542.25V542H52.75H35.25H35V541.75V507.25V507H34.75H18.25H18V506.75V437.25V437H18.25H34.75H35V436.75V402.25V402H34.75H18.25H18V401.75V367.25V367H17.75H0.25C0 367.083 -0.0833333 367 0 366.75V280.25V280H0.25H17.75H18V279.75V227.25V227H18.25H34.75H35V226.75V192.25V192H35.25H52.75H53V191.75V157.25V157H53.25H69.75H70V156.75V140.25V140H70.25H86.75H87V139.75V122.25V122H87.25H104.75H105V121.75V105.25C104.917 105 105 104.917 105.25 105H139.75H140V104.75V87.25V87H140.25H174.75H175V86.75V70.25V70H175.25H209.75H210V70.25V86.75V87H209.75H192.25H192V87.25V104.75V105H191.75H175.25H175V105.25V121.75V122H174.75H157.25H157V122.25V156.75V157H156.75H140.25H140V157.25V209.75V210H139.75H122.25C122 209.917 121.917 210 122 210.25V279.75V280H122.25H139.75H140V280.25V314.75V315H140.25H174.75H175V315.25V331.75C174.917 332 175 332.083 175.25 332H313.75H314V331.75V315.25V315H313.75H262.25C262 315.083 261.917 315 262 314.75V297.25V297H261.75H227.25H227V296.75V280.25C227.083 280 227 279.917 226.75 280H192.25H192V279.75V245.25V245H192.25H209.75H210V244.75V227.25V227H210.25H226.75H227V226.75V210.25V210H227.25H261.75H262V209.75V192.25V192H261.75H244.25H244V191.75V175.25V175H244.25H261.75H262V174.75V140.25V140H261.75H244.25H244V139.75V88.25C244.667 87.9167 244.667 87.5833 244 87.25V0.25V0ZM261 16V17H262V16H261ZM262 18V18.5V140C262 140 262.167 140 262.5 140H279V140.5V157H279.5H297V157.5V175H262.5H262V175.5V192H262.5H279V192.5V210H262.5H262V210.5V227H227.5H227V227.5V245H210.5H210V245.5V262H210.5H244V262.5V280H244.5H279V280.5V297H279.5H332V297.5V315H332.5H349V315.5V332H349.5H366V332.5V349H366.5H384V349.5V367H384.5H401V367.5V384H401.5H471V367.5V367H471.5H489V349.5V349H489.5H506V332.5V332H506.5H523V315.5V315H523.5H541V297.5V297H541.5H593V280.5V280H593.5H628V262.5V262H628.5H663V245.5V245H645.5H645V227.5V227H611.5C611.167 227 611 227 611 227V210.5V210H593.5H593V192.5V192H593.5H611V175.5V175H576.5H576V157.5V157H576.5H593V140.5V140H593.5H611V18.5V18H593.5H593V18.5V35H558.5H558V35.5V52H523.5H523V52.5V70H506.5H506V70.5V87H489.5H489V87.5V105H384.5H384V87.5V87H366.5H366V70.5V70H349.5H349V52.5V52H314.5H314V35.5V35H279.5C279.167 35 279 35 279 35V18.5V18H262.5H262ZM712 88V89H713V88H712ZM140 105V105.5V122H140.5H157V105.5V105H140.5H140ZM715 105V105.5V122H715.5H733V105.5V105H715.5H715ZM105 122V122.5V140H87.5H87V140.5V157H70.5H70V157.5V192H53.5H53V192.5V227H35.5H35V227.5V297H18.5H18V297.5V367C18 367 18.1667 367 18.5 367H35V367.5V402H35.5H53V402.5V437H53.5H70V437.5V454H70.5H87V454.5V472H87.5H105V472.5V489H105.5H140V489.5V507H105.5H105V489.5V489H87.5H87V472.5V472H70.5H70V454.5V454H53.5H53V437.5V437H35.5H35V437.5V489C35 489 35.1667 489 35.5 489H53V489.5V524H53.5H70V524.5V542H70.5H87V542.5V559H87.5H122V559.5V577H122.5H175V577.5V594H175.5H210V489.5C210 489.167 210.167 489 210.5 489H227V437.5C227 437.167 227.167 437 227.5 437H244V402.5V402H244.5H262V384.5C262 384.167 262.167 384 262.5 384H366V367.5V367H349.5H349V349.5C349 349.167 349 349 349 349H175.5C175.167 349 175 349 175 349V332.5V332H140.5H140V315.5V315H122.5H122V297.5V297H105.5H105V210.5C105 210.167 105.167 210 105.5 210H122V188.5V188H123V187H122V157.5V157H122.5H140V122.5V122H105.5H105ZM733 122V122.5V157H733.5H750C750 157 750 157.167 750 157.5V210H750.5H768V210.5V297H750.5H750V297.5V315H733.5H733V315.5V332H698.5H698V332.5V349H523.5C523.167 349 523 349.167 523 349.5V367H506.5H506V367.5V384C506 384 506.167 384 506.5 384H611C611 384 611 384.167 611 384.5V402H611.5H628V402.5V437H628.5H645C645 437 645 437.167 645 437.5V489H645.5H663C663 489 663 489.167 663 489.5V594H663.5H698V577.5C698 577.167 698.167 577 698.5 577H750V559.5C750 559.167 750.167 559 750.5 559H785V542.5V542H785.5H802V524.5V524H802.5H820V489.5V489H820.5H837V437.5V437H820.5H820V437.5V454H802.5H802V454.5V472H785.5H785V472.5V489H768.5H768V489.5V507H733.5H733V489.5V489H733.5H757V490H758V489H758.5H768V472.5V472H768.5H785V454.5V454H785.5H802V437.5V437H802.5H820V402.5V402H820.5H837V367.5V367H837.5H855V297.5C855 297.167 855 297 855 297H837.5C837.167 297 837 297 837 297V227.5C837 227.167 837 227 837 227H820.5H820V192.5V192H802.5H802V157.5V157H785.5H785V140.5V140H768.5H768V122.5V122H733.5H733ZM152 155V156H153V155H152ZM815 176V177H816V176H815ZM305 310V311H306V310H305ZM161 316V317H162V316H161ZM860 358V359H861V358H860ZM411 392V393H412V392H411ZM279 402V402.5V419H262.5C262.167 419 262 419.167 262 419.5V454H244.5C244.167 454 244 454.167 244 454.5V507H227.5H227V507.5V594C227 594 227.167 594 227.5 594H244V594.5V612H244.5H297V594.5V594H297.5H314V577.5V577H314.5H332V559.5V559H332.5H349V542.5V542H349.5H384V524.5V524H366.5H366V507.5V507H366.5H384V489.5V489H384.5H401V489.5V507H401.5H419V507.5V524H401.5H401V524.5V542C401 542 401.167 542 401.5 542H471V524.5V524H454.5H454V507.5V507H454.5H471V489.5V489H471.5H489V489.5V507H489.5H506V507.5V524H489.5H489V524.5V542H489.5H523V542.5V559H523.5H541V559.5V577H541.5H558V577.5V594H558.5H576V594.5V612H576.5H628V594.5V594H628.5H645V507.5C645 507.167 645 507 645 507H628.5H628V454.5C628 454.167 628 454 628 454H611.5H611V419.5V419H593.5H593V402.5V402H506.5H506V402.5V419H489.5H489V419.5V437H471.5H471V437.5V454H401.5H401V437.5V437H384.5H384V419.5V419H366.5H366V402.5C366 402.167 366 402 366 402H279.5H279ZM407 402V403H408V402H407ZM398 408V409H399V408H398ZM459 409V410H460V409H459ZM401 419V419.5V437C401 437 401.167 437 401.5 437H471V419.5C471 419.167 471 419 471 419H401.5H401ZM636 460V461H637V460H636ZM214 598V599H215V598H214Z" fill="#0E0A1B"/>
<path d="M279 18V17.75V0.25V0H278.75H244.25H244V0.25V87.25C244.667 87.5833 244.667 87.9167 244 88.25V139.75V140H244.25H261.75H262M279 18H279.25H313.75H314V18.25V34.75V35M279 18V18.5V35C279 35 279.167 35 279.5 35H314M279 18H262.5H262V18.5V140M314 35H314.25H348.75H349V35.25V51.75V52M314 35V35.5V52H314.5H349M349 52H349.25H365.75H366V52.25V69.75V70M349 52V52.5V70H349.5H366M366 70H366.25H383.75H384V70.25V86.75V87M366 70V70.5V87H366.5H384M384 87H384.25H488.75H489M384 87V87.5V105H384.5H489V87.5V87M489 87V86.75V70.25V70H489.25H505.75H506M489 87H489.5H506V70.5V70M506 70V69.75V52.25V52H506.25H522.75H523M506 70H506.5H523V52.5V52M523 52V51.75V35.25V35H523.25H557.75C558 35.0833 558.083 35 558 34.75V18.25V18H558.25H592.75H593M523 52H523.5H558V35.5V35H558.5H593V18.5V18M593 18V17.75V0.25V0H593.25H627.75H628V0.25V139.75C628.083 140 628 140.083 627.75 140H611.25H611M593 18H593.5H611V18.5V140M611 140V140.25V174.75V175M611 140H593.5H593V140.5V157H576.5H576V157.5V175H576.5H611M611 175H611.25H627.75H628V175.25V191.75V192H627.75H611.25H611M611 175V175.5V192M611 192V192.25V209.75V210M611 192H593.5H593V192.5V210H593.5H611M611 210H611.25H644.75C645 209.917 645.083 210 645 210.25V226.75V227M611 210V210.5V227C611 227 611.167 227 611.5 227H645M645 227H645.25H662.75H663V227.25V244.75V245M645 227V227.5V245H645.5H663M663 245H663.25H679.75C680 244.917 680.083 245 680 245.25V279.75V280H679.75H645.25C645 279.917 644.917 280 645 280.25V296.75V297H644.75H611.25H611V297.25V314.75C611.083 315 611 315.083 610.75 315H558.25H558V315.25V331.75V332H558.25H697.75C698 332.083 698.083 332 698 331.75V315.25V315H698.25H732.75H733M663 245V245.5V262H628.5H628V262.5V280H593.5H593V280.5V297H541.5H541V297.5V315H523.5H523V315.5V332H506.5H506V332.5V349H489.5H489V349.5V367H471.5H471V367.5V384H401.5H401V367.5V367H384.5H384V349.5V349H366.5H366V332.5V332H349.5H349V315.5V315H332.5H332V297.5V297H279.5H279V280.5V280H244.5H244V262.5V262H210.5H210V245.5V245M733 315V314.75V280.25V280H733.25H749.75C750 280.083 750.083 280 750 279.75V210.25V210M733 315H733.5H750V297.5V297H750.5H768V210.5V210H750.5H750M733 315V315.5V332H698.5H698V332.5V349H523.5C523.167 349 523 349.167 523 349.5V367H506.5H506V367.5V384C506 384 506.167 384 506.5 384H611C611 384 611 384.167 611 384.5V402H611.5H628V402.5V437H628.5H645C645 437 645 437.167 645 437.5V489H645.5H663C663 489 663 489.167 663 489.5V594H663.5H698V577.5C698 577.167 698.167 577 698.5 577H750V559.5C750 559.167 750.167 559 750.5 559H785V542.5V542H785.5H802V524.5V524H802.5H820V489.5V489H820.5H837V437.5V437M750 210H749.75H733.25H733V209.75V157.25C733.083 157 733 156.917 732.75 157H715.25H715V156.75V122.25V122M750 210V157.5C750 157.167 750 157 750 157H733.5H733V122.5V122M715 122H714.75H698.25H698V121.75V105.25V105H697.75H680.25H680V104.75V87.25V87H679.75H663.25H663V86.75V70.25V70H663.25H697.75C698 69.9167 698.083 70 698 70.25V86.75V87H698.25H732.75H733V87.25V104.75V105M715 122V105.5V105H715.5H733M715 122H715.5H733M733 105H733.25H767.75H768V105.25V121.75V122M733 105V105.5V122M768 122H768.25H784.75H785V122.25V139.75V140M768 122V122.5V140H768.5H785M768 122H733.5H733M785 140H785.25H801.75H802V140.25V156.75V157M785 140V140.5V157H785.5H802M802 157H802.25H819.75H820V157.25V191.75V192M802 157V157.5V192H802.5H820M820 192H820.25H836.75C837 191.917 837.083 192 837 192.25V226.75V227M820 192V192.5V227H820.5H837M837 227H837.25H854.75C855 226.917 855.083 227 855 227.25V279.75V280H855.25H871.75C872 279.917 872.083 280 872 280.25V366.75V367H871.75H855.25H855M837 227C837 227 837 227.167 837 227.5V297C837 297 837.167 297 837.5 297H855C855 297 855 297.167 855 297.5V367M855 367V367.25V401.75V402H854.75H837.25H837M855 367H837.5H837V367.5V402M837 402V402.25V436.75V437M837 402H820.5H820V402.5V437M837 437H837.25H854.75C855 436.917 855.083 437 855 437.25V506.75V507H854.75H837.25H837V507.25V541.75V542H836.75H820.25H820V542.25V558.75V559H819.75H802.25H802V559.25V576.75V577H801.75H768.25H768V577.25V593.75V594H767.75H698.25C698 593.917 697.917 594 698 594.25V611.75V612H697.75H645.25C645 611.917 644.917 612 645 612.25V627.75C645.083 628 645 628.083 644.75 628H558.25H558V627.75V612.25V612H557.75H541.25H541V611.75V594.25V594H540.75H523.25H523V593.75V577.25V577H522.75H506.25H506V576.75V559.25V559H505.75H366.25H366V559.25V575.75V576H365V577H364.75H349.25H349V577.25V593.75V594H348.75H332.25H332V594.25V611.75V612H331.75H314.25H314V612.25V627.75V628H313.75H227.25H227V627.75V612.25C227.083 612 227 611.917 226.75 612H175.25H175V611.75V594.25C175.083 594 175 593.917 174.75 594H105.25C105 594.083 104.917 594 105 593.75V577.25V577H104.75H70.25H70V576.75V559.25V559H69.75H53.25H53V558.75V542.25V542H52.75H35.25H35V541.75V507.25V507H34.75H18.25H18V506.75V437.25V437H18.25H34.75H35M837 437H820.5H820M35 437V436.75V402.25V402M35 437H35.5H53M35 437V437.5V489C35 489 35.1667 489 35.5 489H53V489.5V524H53.5H70V524.5V542H70.5H87V542.5V559H87.5H122V559.5V577H122.5H175V577.5V594H175.5H210V489.5C210 489.167 210.167 489 210.5 489H227V437.5C227 437.167 227.167 437 227.5 437H244V402.5V402H244.5H262V384.5C262 384.167 262.167 384 262.5 384H366V367.5V367H349.5H349V349.5C349 349.167 349 349 349 349H175.5C175.167 349 175 349 175 349V332.5V332H140.5H140V315.5V315M35 402H34.75H18.25H18V401.75V367.25V367M35 402V367.5V367H18.5C18.1667 367 18 367 18 367M35 402H35.5H53V402.5V437M18 367H17.75H0.25C0 367.083 -0.0833333 367 0 366.75V280.25V280H0.25H17.75H18V279.75V227.25V227H18.25H34.75H35M18 367V297.5V297H18.5H35V227.5V227M35 227V226.75V192.25V192H35.25H52.75H53M35 227H35.5H53V192.5V192M53 192V191.75V157.25V157H53.25H69.75H70M53 192H53.5H70V157.5V157M70 157V156.75V140.25V140H70.25H86.75H87M70 157H70.5H87V140.5V140M87 140V139.75V122.25V122H87.25H104.75H105M87 140H87.5H105V122.5V122M105 122V121.75V105.25C104.917 105 105 104.917 105.25 105H139.75H140M105 122H105.5H140M140 105V104.75V87.25V87H140.25H174.75H175V86.75V70.25V70H175.25H209.75H210V70.25V86.75V87H209.75H192.25H192V87.25V104.75V105H191.75H175.25H175V105.25V121.75V122H174.75H157.25H157M140 105V105.5V122M140 105H140.5H157V105.5V122M157 122V122.25V156.75V157H156.75H140.25H140M157 122H140.5H140M140 157V157.25V209.75V210H139.75H122.25C122 209.917 121.917 210 122 210.25V279.75V280H122.25H139.75H140V280.25V314.75V315M140 157H122.5H122V157.5V187H123V188H122V188.5V210H105.5C105.167 210 105 210.167 105 210.5V297H105.5H122V297.5V315H122.5H140M140 157V122.5V122M140 315H140.25H174.75H175V315.25V331.75C174.917 332 175 332.083 175.25 332H313.75H314V331.75V315.25V315H313.75H262.25C262 315.083 261.917 315 262 314.75V297.25V297H261.75H227.25H227V296.75V280.25C227.083 280 227 279.917 226.75 280H192.25H192V279.75V245.25V245H192.25H209.75H210M210 245V244.75V227.25V227H210.25H226.75H227M210 245H210.5H227V227.5V227M227 227V226.75V210.25V210H227.25H261.75H262M227 227H227.5H262V210.5V210M262 210V209.75V192.25V192M262 210H262.5H279V192.5V192H262.5H262M262 192H261.75H244.25H244V191.75V175.25V175H244.25H261.75H262M262 192V175.5V175M262 175V174.75V140.25V140M262 175H262.5H297V157.5V157H279.5H279V140.5V140H262.5C262.167 140 262 140 262 140M53 437H53.5H70V437.5V454M53 437V437.5V454H53.5H70M70 454H70.5H87V454.5V472M70 454V454.5V472H70.5H87M87 472H87.5H105V472.5V489M87 472V472.5V489H87.5H105M105 489H105.5H140V489.5V507H105.5H105V489.5V489ZM820 437V437.5V454H802.5H802M820 437H802.5H802V437.5V454M802 454V454.5V472H785.5H785M802 454H785.5H785V454.5V472M785 472V472.5V489H768.5H768M785 472H768.5H768V472.5V489M768 489V489.5V507H733.5H733V489.5V489H733.5H757V490H758V489H758.5H768ZM471 437H471.5H489V419.5V419H489.5H506V402.5V402H506.5H593V402.5V419H593.5H611V419.5V454H611.5H628C628 454 628 454.167 628 454.5V507H628.5H645C645 507 645 507.167 645 507.5V594H628.5H628V594.5V612H576.5H576V594.5V594H558.5H558V577.5V577H541.5H541V559.5V559H523.5H523V542.5V542H489.5H489V524.5V524H489.5H506V507.5V507H489.5H489V489.5V489H471.5H471V489.5V507H454.5H454V507.5V524H454.5H471V524.5V542H401.5C401.167 542 401 542 401 542V524.5V524H401.5H419V507.5V507H401.5H401V489.5V489H384.5H384V489.5V507H366.5H366V507.5V524H366.5H384V524.5V542H349.5H349V542.5V559H332.5H332V559.5V577H314.5H314V577.5V594H297.5H297V594.5V612H244.5H244V594.5V594H227.5C227.167 594 227 594 227 594V507.5V507H227.5H244V454.5C244 454.167 244.167 454 244.5 454H262V419.5C262 419.167 262.167 419 262.5 419H279V402.5V402H279.5H366C366 402 366 402.167 366 402.5V419H366.5H384V419.5V437H384.5H401M471 437V437.5V454H401.5H401V437.5V437M471 437H401.5C401.167 437 401 437 401 437M471 437V419.5C471 419.167 471 419 471 419H401.5H401V419.5V437M261 16V17H262V16H261ZM712 88V89H713V88H712ZM152 155V156H153V155H152ZM815 176V177H816V176H815ZM305 310V311H306V310H305ZM161 316V317H162V316H161ZM860 358V359H861V358H860ZM411 392V393H412V392H411ZM407 402V403H408V402H407ZM398 408V409H399V408H398ZM459 409V410H460V409H459ZM636 460V461H637V460H636ZM214 598V599H215V598H214Z" stroke="#0E0A1B"/>
<path d="M279 52H279.25H296.75H297V52.25V69.75V70H297.25H313.75H314V70.25V86.75V87H314.25H331.75H332V87.25V104.75V105H332.25H348.75H349V105.25V121.75V122H348.75H314.25H314V122.25V139.75V140H313.75H297.25H297V139.75V122.25V122H296.75H279.25C279 122.083 278.917 122 279 121.75V52.25V52Z" fill="#0E0A1B" stroke="#0E0A1B"/>
<path d="M576 52H576.25H592.75C593 51.9167 593.083 52 593 52.25V121.75V122H592.75H576.25H576V122.25V139.75V140H575.75H558.25H558V139.75V122.25V122H557.75H523.25H523V121.75V105.25V105H523.25H540.75H541V104.75V87.25V87H541.25H557.75H558V86.75V70.25V70H558.25H575.75H576V69.75V52.25V52ZM558 121V122H559V121H558Z" fill="#0E0A1B"/>
<path d="M558 122V122.25V139.75V140H558.25H575.75H576V139.75V122.25V122H576.25H592.75H593V121.75V52.25C593.083 52 593 51.9167 592.75 52H576.25H576V52.25V69.75V70H575.75H558.25H558V70.25V86.75V87H557.75H541.25H541V87.25V104.75V105H540.75H523.25H523V105.25V121.75V122H523.25H557.75H558ZM558 122V121H559V122H558Z" stroke="#0E0A1B"/>
<path d="M314 192H314.25H365.75H366V192.25V209.75V210H366.25H383.75H384V210.25V244.75C383.917 245 384 245.083 384.25 245H400.75H401V245.25V261.75V262H400.75H384.25H384V261.75V245.25V245H383.75H366.25H366V244.75V210.25V210H365.75H332.25H332V210.25V226.75V227H332.25H348.75H349V227.25V244.75V245H348.75H332.25H332V244.75V227.25V227H331.75H314.25H314V226.75V192.25V192Z" fill="#0E0A1B"/>
<path d="M366 210V209.75V192.25V192H365.75H314.25H314V192.25V226.75V227H314.25H331.75H332M366 210H366.25H383.75H384V210.25V244.75C383.917 245 384 245.083 384.25 245H400.75H401V245.25V261.75V262H400.75H384.25H384V261.75V245.25V245H383.75H366.25H366V244.75V210.25V210ZM366 210H365.75H332.25H332V210.25V226.75V227M332 227H332.25H348.75H349V227.25V244.75V245H348.75H332.25H332V244.75V227.25V227Z" stroke="#0E0A1B"/>
<path d="M506 192H506.25H557.75H558V192.25V226.75V227H557.75H541.25H541V227.25V244.75V245H540.75H523.25H523V244.75V227.25V227H523.25H540.75H541V226.75V210.25V210H540.75H506.25H506V210.25V244.75V245H505.75H489.25H489V245.25V261.75V262H488.75H471.25H471V261.75V245.25V245H471.25H488.75H489V244.75V210.25C488.917 210 489 209.917 489.25 210H505.75H506V209.75V192.25V192Z" fill="#0E0A1B"/>
<path d="M541 227H541.25H557.75H558V226.75V192.25V192H557.75H506.25H506V192.25V209.75V210M541 227V227.25V244.75V245H540.75H523.25H523V244.75V227.25V227H523.25H540.75H541ZM541 227V226.75V210.25V210H540.75H506.25H506M506 210V210.25V244.75V245H505.75H489.25H489M506 210H505.75H489.25C489 209.917 488.917 210 489 210.25V244.75V245M489 245V245.25V261.75V262H488.75H471.25H471V261.75V245.25V245H471.25H488.75H489Z" stroke="#0E0A1B"/>
<path d="M279 227H279.25H296.75H297V227.25V244.75V245H296.75H279.25H279V244.75V227.25V227Z" fill="#0E0A1B" stroke="#0E0A1B"/>
<path d="M576 227H576.25H592.75H593V227.25V244.75V245H592.75H576.25H576V244.75V227.25V227Z" fill="#0E0A1B" stroke="#0E0A1B"/>
<path d="M419 315H419.25H453.75H454V315.25V331.75V332H454.25H470.75H471V332.25V348.75V349H470.75H454.25H454V349.25V366.75V367H453.75H419.25H419V366.75V349.25V349H418.75H401.25H401V348.75V332.25V332H401.25H418.75H419V331.75V315.25V315ZM419 343V344H420V343H419Z" fill="#0E0A1B" stroke="#0E0A1B"/>
<path d="M297 437H297.25H331.75H332V437.25V453.75V454H332.25H348.75C349 453.917 349.083 454 349 454.25V488.75V489H348.75H332.25H332V489.25V506.75V507H331.75H297.25H297V506.75V489.25V489H296.75H279.25H279V488.75V454.25V454H279.25H296.75H297V453.75V437.25V437ZM289 475V476H290V475H289Z" fill="#0E0A1B" stroke="#0E0A1B"/>
<path d="M140 105H140.25H156.75H157V105.25V121.75V122H156.75H140.25H140V122.25V139.75V140H139.75H122.25H122V140.25V156.75V157H121.75H105.25H105V157.25V226.75C105.083 227 105 227.083 104.75 227H87.25H87V226.75V192.25V192H86.75H70.25H70V192.25V209.75V210H69.75H53.25H53V209.75V192.25V192H53.25H69.75C70 192.083 70.0833 192 70 191.75V157.25V157H70.25H86.75H87V156.75V140.25V140H87.25H104.75H105V139.75V122.25V122H105.25H139.75H140V121.75V105.25V105Z" fill="#F7F3F6"/>
<path d="M140 122H140.25H156.75H157V121.75V105.25V105H156.75H140.25H140V105.25V121.75V122ZM140 122V122.25V139.75V140H139.75H122.25H122V140.25V156.75V157H121.75H105.25H105V157.25V226.75C105.083 227 105 227.083 104.75 227H87.25H87V226.75V192.25V192H86.75H70.25H70V192.25V209.75V210H69.75H53.25H53V209.75V192.25V192H53.25H69.75C70 192.083 70.0833 192 70 191.75V157.25V157H70.25H86.75H87V156.75V140.25V140H87.25H104.75H105V139.75V122.25V122H105.25H139.75H140Z" stroke="#F7F3F6"/>
<path d="M715 105H715.25H732.75H733V105.25V121.75C732.917 122 733 122.083 733.25 122H767.75H768V122.25V139.75V140H768.25H784.75H785V140.25V156.75V157H785.25H801.75H802V157.25V191.75V192H802.25H819.75H820V192.25V209.75V210H819.75H802.25H802V209.75V192.25V192H801.75H785.25H785V192.25V226.75V227H784.75H768.25H768V226.75V157.25V157H767.75H750.25H750V156.75V140.25V140H749.75H733.25H733V139.75V122.25V122H732.75H715.25H715V121.75V105.25V105Z" fill="#F7F3F6"/>
<path d="M802 192V191.75V157.25V157H801.75H785.25H785V156.75V140.25V140H784.75H768.25H768V139.75V122.25V122H767.75H733.25C733 122.083 732.917 122 733 121.75V105.25V105H732.75H715.25H715V105.25V121.75V122H715.25H732.75H733V122.25V139.75V140H733.25H749.75H750V140.25V156.75V157H750.25H767.75H768V157.25V226.75V227H768.25H784.75H785V226.75V192.25V192H785.25H801.75H802ZM802 192H802.25H819.75H820V192.25V209.75V210H819.75H802.25H802V209.75V192.25V192Z" stroke="#F7F3F6"/>
<path d="M332 210H332.25H365.75H366V210.25V244.75V245H365.75H349.25H349V244.75V227.25V227H348.75H332.25H332V226.75V210.25V210Z" fill="#F7F3F6" stroke="#F7F3F6"/>
<path d="M506 210H506.25H540.75H541V210.25V226.75V227H540.75H523.25H523V227.25V244.75V245H522.75H506.25H506V244.75V210.25V210Z" fill="#F7F3F6" stroke="#F7F3F6"/>
<path d="M244 262H244.25H296.75C297 261.917 297.083 262 297 262.25V279.75V280H297.25H348.75H349V280.25V296.75V297H349.25H365.75H366V297.25V314.75V315H366.25H383.75H384V315.25V331.75V332H384.25H400.75H401V332.25V348.75V349H401.25H418.75H419V349.25V366.75V367H419.25H453.75H454V366.75V349.25V349H454.25H470.75H471V348.75V332.25V332H471.25H488.75H489V331.75V315.25V315H489.25H505.75H506V314.75V297.25V297H506.25H522.75H523V296.75V280.25V280H523.25H575.75C576 280.083 576.083 280 576 279.75V262.25V262H576.25H627.75H628V262.25V279.75V280H627.75H593.25H593V280.25V296.75V297H592.75H541.25H541V297.25V314.75V315H540.75H523.25H523V315.25V331.75V332H522.75H506.25H506V332.25V348.75V349H505.75H489.25H489V349.25V366.75V367H488.75H471.25H471V367.25V383.75V384H470.75H401.25H401V383.75V367.25V367H400.75H384.25H384V366.75V349.25V349H383.75H366.25H366V348.75V332.25V332H365.75H349.25H349V331.75V315.25V315H348.75H332.25H332V314.75V297.25V297H331.75H279.25H279V296.75V280.25V280H278.75H244.25H244V279.75V262.25V262Z" fill="#F7F3F6" stroke="#F7F3F6"/>
<path d="M279 402H279.25H365.75C366 401.917 366.083 402 366 402.25V418.75V419H366.25H383.75H384V419.25V436.75V437H384.25H400.75H401V437.25V453.75V454H401.25H470.75H471V453.75V437.25V437H471.25H488.75H489V436.75V419.25V419H489.25H505.75H506V418.75V402.25V402H506.25H592.75H593V402.25V418.75V419H593.25H610.75H611V419.25V453.75V454H611.25H627.75C628 453.917 628.083 454 628 454.25V506.75V507H628.25H644.75C645 506.917 645.083 507 645 507.25V576.75V577H644.75H628.25H628V577.25V593.75C628.083 594 628 594.083 627.75 594H576.25H576V593.75V577.25V577H575.75H558.25H558V576.75V559.25V559H557.75H523.25C523 559.083 522.917 559 523 558.75V542.25V542H522.75H489.25H489V541.75V524.25V524H489.25H505.75H506V523.75V507.25V507H505.75H489.25H489V506.75V489.25V489H488.75H471.25H471V489.25V506.75V507H470.75H454.25H454V507.25V523.75V524H454.25H470.75H471V524.25V541.75V542H470.75H401.25C401 542.083 400.917 542 401 541.75V524.25V524H401.25H418.75H419V523.75V507.25V507H418.75H401.25H401V506.75V489.25V489H400.75H384.25H384V489.25V506.75V507H383.75H366.25H366V507.25V523.75V524H366.25H383.75H384V524.25V541.75V542H383.75H349.25C349 541.917 348.917 542 349 542.25V558.75V559H348.75H314.25H314V559.25V576.75V577H313.75H297.25H297V577.25V593.75V594H296.75H244.25H244V593.75V577.25V577H243.75H227.25C227 577.083 226.917 577 227 576.75V507.25V507H227.25H243.75H244V506.75V454.25C243.917 454 244 453.917 244.25 454H261.75H262V453.75V419.25C261.917 419 262 418.917 262.25 419H278.75H279V418.75V402.25V402ZM541 419V419.5V454H541.5H576V419.5V419H541.5H541ZM297 437V437.5V454H279.5H279V454.5V489H279.5H297V489.5V507H297.5H332V489.5V489H332.5H349V454.5C349 454.167 349 454 349 454H332.5H332V437.5V437H297.5H297ZM506 454V454.5V489H506.5H541V454.5V454H506.5H506ZM576 454V454.5V489H576.5H611V454.5V454H576.5H576ZM541 489V489.5V524H541.5H576V489.5V489H541.5H541Z" fill="#F7F3F6"/>
<path d="M611 454V453.75V419.25V419H610.75H593.25H593V418.75V402.25V402H592.75H506.25H506V402.25V418.75V419H505.75H489.25H489V419.25V436.75V437H488.75H471.25H471V437.25V453.75V454H470.75H401.25H401V453.75V437.25V437H400.75H384.25H384V436.75V419.25V419H383.75H366.25H366V418.75V402.25C366.083 402 366 401.917 365.75 402H279.25H279V402.25V418.75V419H278.75H262.25C262 418.917 261.917 419 262 419.25V453.75V454H261.75H244.25C244 453.917 243.917 454 244 454.25V506.75V507H243.75H227.25H227V507.25V576.75C226.917 577 227 577.083 227.25 577H243.75H244V577.25V593.75V594H244.25H296.75H297V593.75V577.25V577H297.25H313.75H314V576.75V559.25V559H314.25H348.75H349V558.75V542.25C348.917 542 349 541.917 349.25 542H383.75H384V541.75V524.25V524H383.75H366.25H366V523.75V507.25V507H366.25H383.75H384V506.75V489.25V489H384.25H400.75H401V489.25V506.75V507H401.25H418.75H419V507.25V523.75V524H418.75H401.25H401V524.25V541.75C400.917 542 401 542.083 401.25 542H470.75H471V541.75V524.25V524H470.75H454.25H454V523.75V507.25V507H454.25H470.75H471V506.75V489.25V489H471.25H488.75H489V489.25V506.75V507H489.25H505.75H506V507.25V523.75V524H505.75H489.25H489V524.25V541.75V542H489.25H522.75H523V542.25V558.75C522.917 559 523 559.083 523.25 559H557.75H558V559.25V576.75V577H558.25H575.75H576V577.25V593.75V594H576.25H627.75C628 594.083 628.083 594 628 593.75V577.25V577H628.25H644.75H645V576.75V507.25C645.083 507 645 506.917 644.75 507H628.25H628V506.75V454.25C628.083 454 628 453.917 627.75 454H611.25H611ZM611 454V454.5V489H576.5H576M611 454H576.5H576M541 454V419.5V419H541.5H576V419.5V454M541 454H541.5H576M541 454V454.5V489M541 454H506.5H506V454.5V489H506.5H541M576 454V454.5V489M541 489V489.5V524H541.5H576V489.5V489M541 489H541.5H576M297 437V437.5V454H279.5H279V454.5V489H279.5H297V489.5V507H297.5H332V489.5V489H332.5H349V454.5C349 454.167 349 454 349 454H332.5H332V437.5V437H297.5H297Z" stroke="#F7F3F6"/>
</g>
<defs>
<clipPath id="clip0_2205_21">
<rect width="872" height="628" fill="white"/>
</clipPath>
</defs>
</svg>
