<svg width="173" height="191" viewBox="0 0 173 191" fill="none" xmlns="http://www.w3.org/2000/svg">
<g clip-path="url(#clip0_2205_172)">
<path d="M17 105H17.25H51.75H52V105.25V138.75C51.9167 139 52 139.083 52.25 139H120.75H121V138.75V105.25V105H121.25H155.75H156V105.25V156.75C156.083 157 156 157.083 155.75 157H139.25H139V157.25V173.75V174H138.75H34.25H34V173.75V157.25V157H33.75H17.25C17 157.083 16.9167 157 17 156.75V105.25V105ZM25 118V119H26V118H25ZM49 121V122H50V121H49ZM146 122V123H147V122H146ZM149 124V125H150V124H149ZM25 143V144H26V143H25ZM112 144V145H113V144H112ZM81 147V148H82V147H81ZM116 147V148H117V147H116ZM36 149V150H37V149H36ZM20 150V151H21V150H20ZM70 161V162H71V161H70ZM52 165V166H53V165H52ZM117 165V166H118V165H117ZM58 171V172H59V171H58Z" fill="#A47AA3" stroke="#A47AA3" stroke-width="2.5"/>
<path d="M25 118H26V119H25V118Z" fill="#A47AA2" stroke="#A47AA2" stroke-width="2.5"/>
<path d="M49 121H50V122H49V121Z" fill="#A47AA2" stroke="#A47AA2" stroke-width="2.5"/>
<path d="M146 122H147V123H146V122Z" fill="#A47AA2" stroke="#A47AA2" stroke-width="2.5"/>
<path d="M149 124H150V125H149V124Z" fill="#A47AA2" stroke="#A47AA2" stroke-width="2.5"/>
<path d="M25 143H26V144H25V143Z" fill="#A47AA2" stroke="#A47AA2" stroke-width="2.5"/>
<path d="M112 144H113V145H112V144Z" fill="#A47AA2" stroke="#A47AA2" stroke-width="2.5"/>
<path d="M81 147H82V148H81V147Z" fill="#A47AA2" stroke="#A47AA2" stroke-width="2.5"/>
<path d="M116 147H117V148H116V147Z" fill="#A47AA2" stroke="#A47AA2" stroke-width="2.5"/>
<path d="M36 149H37V150H36V149Z" fill="#A47AA2" stroke="#A47AA2" stroke-width="2.5"/>
<path d="M20 150H21V151H20V150Z" fill="#A47AA2" stroke="#A47AA2" stroke-width="2.5"/>
<path d="M70 161H71V162H70V161Z" fill="#A47AA2" stroke="#A47AA2" stroke-width="2.5"/>
<path d="M52 165H53V166H52V165Z" fill="#A47AA2" stroke="#A47AA2" stroke-width="2.5"/>
<path d="M117 165H118V166H117V165Z" fill="#A47AA2" stroke="#A47AA2" stroke-width="2.5"/>
<path d="M58 171H59V172H58V171Z" fill="#A47AA2" stroke="#A47AA2" stroke-width="2.5"/>
<path d="M34 17H34.25H138.75H139V17.25V34.75V35H139.25H155.75C156 34.9167 156.083 35 156 35.25V104.75V105H155.75H121.25H121V104.75V52.25V52H120.75H52.25H52V52.25V104.75V105H51.75H17.25H17V104.75V35.25C16.9167 35 17 34.9167 17.25 35H33.75H34V34.75V17.25V17Z" fill="white" stroke="white" stroke-width="2.5"/>
<path d="M62 0H63V1H62V0Z" fill="#0E0A1A" stroke="#0E0A1A" stroke-width="2.5"/>
<path d="M127 5H128V6H127V5Z" fill="#0E0A1A" stroke="#0E0A1A" stroke-width="2.5"/>
<path d="M52 10H53V11H52V10Z" fill="#0E0A1A" stroke="#0E0A1A" stroke-width="2.5"/>
<path d="M53 12H54V13H53V12Z" fill="#0E0A1A" stroke="#0E0A1A" stroke-width="2.5"/>
<path d="M91 15H92V16H91V15Z" fill="#0E0A1A" stroke="#0E0A1A" stroke-width="2.5"/>
<path d="M108 16H109V17H108V16Z" fill="#0E0A1A" stroke="#0E0A1A" stroke-width="2.5"/>
<path d="M21 28H22V29H21V28Z" fill="#0E0A1A" stroke="#0E0A1A" stroke-width="2.5"/>
<path d="M10 42H11V43H10V42Z" fill="#0E0A1A" stroke="#0E0A1A" stroke-width="2.5"/>
<path d="M2 47H3V48H2V47Z" fill="#0E0A1A" stroke="#0E0A1A" stroke-width="2.5"/>
<path d="M6 54H7V55H6V54Z" fill="#0E0A1A" stroke="#0E0A1A" stroke-width="2.5"/>
<path d="M92 54H93V55H92V54Z" fill="#0E0A1A" stroke="#0E0A1A" stroke-width="2.5"/>
<path d="M101 54H102V55H101V54Z" fill="#0E0A1A" stroke="#0E0A1A" stroke-width="2.5"/>
<path d="M169 55H170V56H169V55Z" fill="#0E0A1A" stroke="#0E0A1A" stroke-width="2.5"/>
<path d="M9 58H10V59H9V58Z" fill="#0E0A1A" stroke="#0E0A1A" stroke-width="2.5"/>
<path d="M117 61H118V62H117V61Z" fill="#0E0A1A" stroke="#0E0A1A" stroke-width="2.5"/>
<path d="M11 66H12V67H11V66Z" fill="#0E0A1A" stroke="#0E0A1A" stroke-width="2.5"/>
<path d="M65 68H66V69H65V68Z" fill="#0E0A1A" stroke="#0E0A1A" stroke-width="2.5"/>
<path d="M105 70H106V71H105V70Z" fill="#0E0A1A" stroke="#0E0A1A" stroke-width="2.5"/>
<path d="M112 71H113V72H112V71Z" fill="#0E0A1A" stroke="#0E0A1A" stroke-width="2.5"/>
<path d="M171 73H172V74H171V73Z" fill="#0E0A1A" stroke="#0E0A1A" stroke-width="2.5"/>
<path d="M57 79H58V80H57V79Z" fill="#0E0A1A" stroke="#0E0A1A" stroke-width="2.5"/>
<path d="M10 90H11V91H10V90Z" fill="#0E0A1A" stroke="#0E0A1A" stroke-width="2.5"/>
<path d="M159 92H160V93H159V92Z" fill="#0E0A1A" stroke="#0E0A1A" stroke-width="2.5"/>
<path d="M63 98H64V99H63V98Z" fill="#0E0A1A" stroke="#0E0A1A" stroke-width="2.5"/>
<path d="M6 99H7V100H6V99Z" fill="#0E0A1A" stroke="#0E0A1A" stroke-width="2.5"/>
<path d="M8 113H9V114H8V113Z" fill="#0E0A1A" stroke="#0E0A1A" stroke-width="2.5"/>
<path d="M13 115H14V116H13V115Z" fill="#0E0A1A" stroke="#0E0A1A" stroke-width="2.5"/>
<path d="M57 118H58V119H57V118Z" fill="#0E0A1A" stroke="#0E0A1A" stroke-width="2.5"/>
<path d="M58 126H59V127H58V126Z" fill="#0E0A1A" stroke="#0E0A1A" stroke-width="2.5"/>
<path d="M111 128H112V129H111V128Z" fill="#0E0A1A" stroke="#0E0A1A" stroke-width="2.5"/>
<path d="M98 132H99V133H98V132Z" fill="#0E0A1A" stroke="#0E0A1A" stroke-width="2.5"/>
<path d="M57 133H58V134H57V133Z" fill="#0E0A1A" stroke="#0E0A1A" stroke-width="2.5"/>
<path d="M170 140H171V141H170V140Z" fill="#0E0A1A" stroke="#0E0A1A" stroke-width="2.5"/>
<path d="M7 152H8V153H7V152Z" fill="#0E0A1A" stroke="#0E0A1A" stroke-width="2.5"/>
<path d="M11 155H12V156H11V155Z" fill="#0E0A1A" stroke="#0E0A1A" stroke-width="2.5"/>
<path d="M169 156H170V157H169V156Z" fill="#0E0A1A" stroke="#0E0A1A" stroke-width="2.5"/>
<path d="M31 163H32V164H31V163Z" fill="#0E0A1A" stroke="#0E0A1A" stroke-width="2.5"/>
<path d="M79 177H80V178H79V177Z" fill="#0E0A1A" stroke="#0E0A1A" stroke-width="2.5"/>
<path d="M39 184H40V185H39V184Z" fill="#0E0A1A" stroke="#0E0A1A" stroke-width="2.5"/>
<path d="M69 184H70V185H69V184Z" fill="#0E0A1A" stroke="#0E0A1A" stroke-width="2.5"/>
<path d="M82 184H83V185H82V184Z" fill="#0E0A1A" stroke="#0E0A1A" stroke-width="2.5"/>
<path d="M125 188H126V189H125V188Z" fill="#0E0A1A" stroke="#0E0A1A" stroke-width="2.5"/>
<path d="M34 0H34.25H61.75H62V1H63V0H63.25H138.75H139V0.25V16.75V17H139.25H155.75H156V17.25V34.75V35H156.25H172.75C173 34.9167 173.083 35 173 35.25V173.75V174H172.75H139.25H139V174.25V190.75C139.083 191 139 191.083 138.75 191H34.25H34V190.75V174.25V174H33.75H0.25C0 174.083 -0.0833333 174 0 173.75V35.25V35H0.25H16.75H17V34.75V17.25V17H17.25H33.75H34V16.75V0.25V0ZM127 5V6H128V5H127ZM52 10V11H53V10H52ZM53 12V13H54V12H53ZM91 15V16H92V15H91ZM108 16V17H34.5C34.1667 17 34 17.1667 34 17.5V35H17.5H17V35.5V157C17 157 17.1667 157 17.5 157H34V157.5V174H34.5H139V157.5V157H139.5H156V81C156.667 80.6667 156.667 80.3333 156 80V35.5V35H139.5H139V17.5V17H109.5H109V16H108ZM21 28V29H22V28H21ZM10 42V43H11V42H10ZM2 47V48H3V47H2ZM6 54V55H7V54H6ZM169 55V56H170V55H169ZM9 58V59H10V58H9ZM11 66V67H12V66H11ZM171 73V74H172V73H171ZM10 90V91H11V90H10ZM159 92V93H160V92H159ZM6 99V100H7V99H6ZM8 113V114H9V113H8ZM13 115V116H14V115H13ZM170 140V141H171V140H170ZM7 152V153H8V152H7ZM11 155V156H12V155H11ZM169 156V157H170V156H169ZM31 163V164H32V163H31ZM79 177V178H80V177H79ZM39 184V185H40V184H39ZM69 184V185H70V184H69ZM82 184V185H83V184H82ZM125 188V189H126V188H125Z" fill="#0E0A1B"/>
<path d="M139 17V16.75V0.25V0H138.75H63.25H63V1H62V0H61.75H34.25H34V0.25V16.75V17H33.75H17.25H17V17.25V34.75V35M139 17H139.25H155.75H156V17.25V34.75V35M139 17V17.5V35H139.5H156M139 17H109.5H109V16H108V17H34.5C34.1667 17 34 17.1667 34 17.5V35H17.5H17M156 35H156.25H172.75C173 34.9167 173.083 35 173 35.25V173.75V174H172.75H139.25H139M156 35V35.5V80C156.667 80.3333 156.667 80.6667 156 81V157H139.5H139V157.5V174M139 174V174.25V190.75C139.083 191 139 191.083 138.75 191H34.25H34V190.75V174.25V174M139 174H34.5H34M34 174H33.75H0.25C0 174.083 -0.0833333 174 0 173.75V35.25V35H0.25H16.75H17M34 174V157.5V157H17.5C17.1667 157 17 157 17 157V35.5V35M127 5V6H128V5H127ZM52 10V11H53V10H52ZM53 12V13H54V12H53ZM91 15V16H92V15H91ZM21 28V29H22V28H21ZM10 42V43H11V42H10ZM2 47V48H3V47H2ZM6 54V55H7V54H6ZM169 55V56H170V55H169ZM9 58V59H10V58H9ZM11 66V67H12V66H11ZM171 73V74H172V73H171ZM10 90V91H11V90H10ZM159 92V93H160V92H159ZM6 99V100H7V99H6ZM8 113V114H9V113H8ZM13 115V116H14V115H13ZM170 140V141H171V140H170ZM7 152V153H8V152H7ZM11 155V156H12V155H11ZM169 156V157H170V156H169ZM31 163V164H32V163H31ZM79 177V178H80V177H79ZM39 184V185H40V184H39ZM69 184V185H70V184H69ZM82 184V185H83V184H82ZM125 188V189H126V188H125Z" stroke="#0E0A1B" stroke-width="2.5"/>
<path d="M52 52H52.25H120.75H121V52.25V138.75V139H120.75H52.25H52V138.75V52.25V52ZM92 54V55H93V54H92ZM101 54V55H102V54H101ZM117 61V62H118V61H117ZM65 68V69H66V68H65ZM69 70V70.5V122H69.5H104V70.5V70H69.5H69ZM105 70V71H106V70H105ZM112 71V72H113V71H112ZM57 79V80H58V79H57ZM63 98V99H64V98H63ZM57 118V119H58V118H57ZM58 126V127H59V126H58ZM111 128V129H112V128H111ZM98 132V133H99V132H98ZM57 133V134H58V133H57Z" fill="#0E0A1B" stroke="#0E0A1B" stroke-width="2.5"/>
</g>
<defs>
<clipPath id="clip0_2205_172">
<rect width="173" height="191" fill="white"/>
</clipPath>
</defs>
</svg>
