<svg width="156" height="191" viewBox="0 0 156 191" fill="none" xmlns="http://www.w3.org/2000/svg">
<g clip-path="url(#clip0_2205_239)">
<path d="M149 2H150V3H149V2Z" fill="#0E0A1A" stroke="#0E0A1A" stroke-width="2.5"/>
<path d="M38 5H39V6H38V5Z" fill="#0E0A1A" stroke="#0E0A1A" stroke-width="2.5"/>
<path d="M77 6H78V7H77V6Z" fill="#0E0A1A" stroke="#0E0A1A" stroke-width="2.5"/>
<path d="M95 10H96V11H95V10Z" fill="#0E0A1A" stroke="#0E0A1A" stroke-width="2.5"/>
<path d="M44 12H45V13H44V12Z" fill="#0E0A1A" stroke="#0E0A1A" stroke-width="2.5"/>
<path d="M155 14H156V15H155V14Z" fill="#0E0A1A" stroke="#0E0A1A" stroke-width="2.5"/>
<path d="M107 15H108V16H107V15Z" fill="#0E0A1A" stroke="#0E0A1A" stroke-width="2.5"/>
<path d="M119 58H120V59H119V58Z" fill="#0E0A1A" stroke="#0E0A1A" stroke-width="2.5"/>
<path d="M131 63H132V64H131V63Z" fill="#0E0A1A" stroke="#0E0A1A" stroke-width="2.5"/>
<path d="M74 66H75V67H74V66Z" fill="#0E0A1A" stroke="#0E0A1A" stroke-width="2.5"/>
<path d="M80 68H81V69H80V68Z" fill="#0E0A1A" stroke="#0E0A1A" stroke-width="2.5"/>
<path d="M119 71H120V72H119V71Z" fill="#0E0A1A" stroke="#0E0A1A" stroke-width="2.5"/>
<path d="M92 73H93V74H92V73Z" fill="#0E0A1A" stroke="#0E0A1A" stroke-width="2.5"/>
<path d="M101 74H102V75H101V74Z" fill="#0E0A1A" stroke="#0E0A1A" stroke-width="2.5"/>
<path d="M5 78H6V79H5V78Z" fill="#0E0A1A" stroke="#0E0A1A" stroke-width="2.5"/>
<path d="M80 79H81V80H80V79Z" fill="#0E0A1A" stroke="#0E0A1A" stroke-width="2.5"/>
<path d="M86 83H87V84H86V83Z" fill="#0E0A1A" stroke="#0E0A1A" stroke-width="2.5"/>
<path d="M131 89H132V90H131V89Z" fill="#0E0A1A" stroke="#0E0A1A" stroke-width="2.5"/>
<path d="M20 92H21V93H20V92Z" fill="#0E0A1A" stroke="#0E0A1A" stroke-width="2.5"/>
<path d="M20 99H21V100H20V99Z" fill="#0E0A1A" stroke="#0E0A1A" stroke-width="2.5"/>
<path d="M122 99H123V100H122V99Z" fill="#0E0A1A" stroke="#0E0A1A" stroke-width="2.5"/>
<path d="M146 114H147V115H146V114Z" fill="#0E0A1A" stroke="#0E0A1A" stroke-width="2.5"/>
<path d="M26 122H27V123H26V122Z" fill="#0E0A1A" stroke="#0E0A1A" stroke-width="2.5"/>
<path d="M26 127H27V128H26V127Z" fill="#0E0A1A" stroke="#0E0A1A" stroke-width="2.5"/>
<path d="M71 127H72V128H71V127Z" fill="#0E0A1A" stroke="#0E0A1A" stroke-width="2.5"/>
<path d="M47 138H48V139H47V138Z" fill="#0E0A1A" stroke="#0E0A1A" stroke-width="2.5"/>
<path d="M149 142H150V143H149V142Z" fill="#0E0A1A" stroke="#0E0A1A" stroke-width="2.5"/>
<path d="M5 159H6V160H5V159Z" fill="#0E0A1A" stroke="#0E0A1A" stroke-width="2.5"/>
<path d="M152 161H153V162H152V161Z" fill="#0E0A1A" stroke="#0E0A1A" stroke-width="2.5"/>
<path d="M143 166H144V167H143V166Z" fill="#0E0A1A" stroke="#0E0A1A" stroke-width="2.5"/>
<path d="M152 166H153V167H152V166Z" fill="#0E0A1A" stroke="#0E0A1A" stroke-width="2.5"/>
<path d="M146 170H147V171H146V170Z" fill="#0E0A1A" stroke="#0E0A1A" stroke-width="2.5"/>
<path d="M29 178H30V179H29V178Z" fill="#0E0A1A" stroke="#0E0A1A" stroke-width="2.5"/>
<path d="M56 178H57V179H56V178Z" fill="#0E0A1A" stroke="#0E0A1A" stroke-width="2.5"/>
<path d="M35 179H36V180H35V179Z" fill="#0E0A1A" stroke="#0E0A1A" stroke-width="2.5"/>
<path d="M83 180H84V181H83V180Z" fill="#0E0A1A" stroke="#0E0A1A" stroke-width="2.5"/>
<path d="M62 183H63V184H62V183Z" fill="#0E0A1A" stroke="#0E0A1A" stroke-width="2.5"/>
<path d="M119 185H120V186H119V185Z" fill="#0E0A1A" stroke="#0E0A1A" stroke-width="2.5"/>
<path d="M29 187H30V188H29V187Z" fill="#0E0A1A" stroke="#0E0A1A" stroke-width="2.5"/>
<path d="M34 0H34.25H155.75C156 -0.0833333 156.083 0 156 0.25V13.75V14H155V15H156V15.25V20.25C155.333 20.5833 155.333 20.9167 156 21.25V69.75V70H155.75H121.25H121V70.25V86.75V87H121.25H138.75H139V87.25V104.75V105H139.25H155.75H156V105.25V173.75V174H155.75H121.25H121V174.25V190.75C121.083 191 121 191.083 120.75 191H17.25H17V190.75V174.25V174H16.75H0.25C0 174.083 -0.0833333 174 0 173.75V139.25V139H0.25H16.75H17V138.75V122.25V122H17.25H25.75H26V123H27V122H27.25H33.75H34V121.75V105.25V105H33.75H17.25H17V104.75V87.25V87H16.75H0.25H0V86.75V35.25V35H0.25H16.75H17V34.75V17.25V17H17.25H33.75H34V16.75V0.25V0ZM149 2V3H150V2H149ZM38 5V6H39V5H38ZM77 6V7H78V6H77ZM95 10V11H96V10H95ZM44 12V13H45V12H44ZM107 15V16H108V15H107ZM34 17V17.5V35H17.5H17V35.5V87H17.5H34V87.5V105H34.5H52V105.5V122H52.5H104V122.5V139H48.5H48V138H47V139H17.5H17V139.5V174H17.5H121V157.5V157H121.5H139V105.5C139 105.167 139 105 139 105H121.5H121V87.5V87H69.5H69V52.5V52H69.5H139V17.5V17H34.5H34ZM119 58V59H120V58H119ZM131 63V64H132V63H131ZM74 66V67H75V66H74ZM80 68V69H81V68H80ZM119 71V72H120V71H119ZM92 73V74H93V73H92ZM101 74V75H102V74H101ZM5 78V79H6V78H5ZM80 79V80H81V79H80ZM86 83V84H87V83H86ZM131 89V90H132V89H131ZM20 92V93H21V92H20ZM20 99V100H21V99H20ZM122 99V100H123V99H122ZM146 114V115H147V114H146ZM26 127V128H27V127H26ZM71 127V128H72V127H71ZM149 142V143H150V142H149ZM5 159V160H6V159H5ZM152 161V162H153V161H152ZM143 166V167H144V166H143ZM152 166V167H153V166H152ZM146 170V171H147V170H146ZM29 178V179H30V178H29ZM56 178V179H57V178H56ZM35 179V180H36V179H35ZM83 180V181H84V180H83ZM62 183V184H63V183H62ZM119 185V186H120V185H119ZM29 187V188H30V187H29Z" fill="#0E0A1B"/>
<path d="M121 87V86.75V70.25V70H121.25H155.75H156V69.75V21.25C155.333 20.9167 155.333 20.5833 156 20.25V15.25V15H155V14H156V13.75V0.25C156.083 0 156 -0.0833333 155.75 0H34.25H34V0.25V16.75V17M121 87H121.25H138.75H139V87.25V104.75V105M121 87V87.5V105H121.5H139M121 87H69.5H69V52.5V52H69.5H139V17.5V17H34.5H34M139 105H139.25H155.75H156V105.25V173.75V174H155.75H121.25H121M139 105C139 105 139 105.167 139 105.5V157H121.5H121V157.5V174M121 174V174.25V190.75C121.083 191 121 191.083 120.75 191H17.25H17V190.75V174.25V174M121 174H17.5H17M17 174H16.75H0.25C0 174.083 -0.0833333 174 0 173.75V139.25V139H0.25H16.75H17M17 174V139.5V139M17 139V138.75V122.25V122H17.25H25.75H26V123H27V122H27.25H33.75H34V121.75V105.25V105M17 139H17.5H47V138H48V139H48.5H104V122.5V122H52.5H52V105.5V105H34.5H34M34 105H33.75H17.25H17V104.75V87.25V87M34 105V87.5V87H17.5H17M17 87H16.75H0.25H0V86.75V35.25V35H0.25H16.75H17M17 87V35.5V35M17 35V34.75V17.25V17H17.25H33.75H34M17 35H17.5H34V17.5V17M149 2V3H150V2H149ZM38 5V6H39V5H38ZM77 6V7H78V6H77ZM95 10V11H96V10H95ZM44 12V13H45V12H44ZM107 15V16H108V15H107ZM119 58V59H120V58H119ZM131 63V64H132V63H131ZM74 66V67H75V66H74ZM80 68V69H81V68H80ZM119 71V72H120V71H119ZM92 73V74H93V73H92ZM101 74V75H102V74H101ZM5 78V79H6V78H5ZM80 79V80H81V79H80ZM86 83V84H87V83H86ZM131 89V90H132V89H131ZM20 92V93H21V92H20ZM20 99V100H21V99H20ZM122 99V100H123V99H122ZM146 114V115H147V114H146ZM26 127V128H27V127H26ZM71 127V128H72V127H71ZM149 142V143H150V142H149ZM5 159V160H6V159H5ZM152 161V162H153V161H152ZM143 166V167H144V166H143ZM152 166V167H153V166H152ZM146 170V171H147V170H146ZM29 178V179H30V178H29ZM56 178V179H57V178H56ZM35 179V180H36V179H35ZM83 180V181H84V180H83ZM62 183V184H63V183H62ZM119 185V186H120V185H119ZM29 187V188H30V187H29Z" stroke="#0E0A1B" stroke-width="2.5"/>
<path d="M52 105H52.25H138.75H139V105.25V156.75V157H138.75H121.25H121V157.25V173.75C121.083 174 121 174.083 120.75 174H17.25H17V173.75V139.25V139H17.25H103.75C104 139.083 104.083 139 104 138.75V122.25V122H103.75H52.25C52 122.083 51.9167 122 52 121.75V105.25V105Z" fill="#A47AA2" stroke="#A47AA2" stroke-width="2.5"/>
<path d="M34 17H34.25H138.75H139V17.25V51.75V52H138.75H69.25H69V52.25V86.75V87H69.25H120.75H121V87.25V104.75V105H120.75H34.25H34V104.75V87.25V87H33.75H17.25C17 87.0833 16.9167 87 17 86.75V35.25V35H17.25H33.75H34V34.75V17.25V17Z" fill="#FEFEFE" stroke="#FEFEFE" stroke-width="2.5"/>
</g>
<defs>
<clipPath id="clip0_2205_239">
<rect width="156" height="191" fill="white"/>
</clipPath>
</defs>
</svg>
